<?xml version="1.0" encoding="utf-8" standalone="yes"?>
<!DOCTYPE svg PUBLIC "-//W3C//DTD SVG 1.1//EN" "http://www.w3.org/Graphics/SVG/1.1/DTD/svg11.dtd">
<svg width="1072" height="528" viewBox="0 0 1072 528" style="fill:none;stroke:none;fill-rule:evenodd;clip-rule:evenodd;stroke-linecap:round;stroke-linejoin:round;stroke-miterlimit:1.5;" version="1.1" xmlns="http://www.w3.org/2000/svg" xmlns:xlink="http://www.w3.org/1999/xlink"><style id="fontImports">@import url("https://fonts.googleapis.com/css2?family=Shantell+Sans:wght@300..800&amp;display=block");</style><rect id="" x="0" y="0" width="1072" height="528" style="fill: #ffffff;"></rect><g id="items" style="isolation: isolate"><g id="blend" style="mix-blend-mode:normal"><g id="g-root-1.cu_sy_1ha2ldg65e39q-fill" data-item-order="999760928" data-item-id="1.cu_sy_1ha2ldg65e39q" data-item-class="Part Indexed Indexed_1 Fill Stroke" data-item-index="1" data-renderer-id="0" transform="translate(4, 74)"><g id="1.cu_sy_1ha2ldg65e39q-fill" stroke="none" fill="#cedfff"><g><path d="M 2.2 103L 6.8 106.7L 25.7 96.5L 15 87.6ZM 25.7 96.5L 20.1 46.4L 0.6 51.9L 6.8 106.7ZM 0.6 51.9L 28.3 110.9L 47.6 104.9L 20.1 46.4ZM 47.6 104.9L 32.1 8.3L 12.7 14.1L 28.3 110.9ZM 12.7 14.1L 55.4 109.5L 74.5 103.3L 32.1 8.3ZM 74.5 103.3L 54.9 10.7L 35.7 16.7L 55.4 109.5ZM 35.7 16.7L 74.9 109.3L 94.3 103.7L 54.9 10.7ZM 94.3 103.7L 79.8 12.7L 60.6 18.9L 74.9 109.3ZM 60.6 18.9L 103.6 105.5L 122.7 98.9L 79.8 12.7ZM 122.7 98.9L 104.6 10.4L 85.4 16.6L 103.6 105.5ZM 85.4 16.6L 127.1 108.6L 146.4 102.7L 104.6 10.4ZM 146.4 102.7L 130.8 11L 111.4 16.5L 127.1 108.6ZM 111.4 16.5L 147.4 105.5L 166.8 100.2L 130.8 11ZM 166.8 100.2L 153.2 11.2L 133.9 17.7L 147.4 105.5ZM 133.9 17.7L 168.5 82L 187.7 75.4L 153.2 11.2ZM 187.7 75.4L 176.9 8.8L 157.7 15.4L 168.5 82ZM 157.7 15.4L 167.3 32.7L 190.3 33.1L 176.9 8.8ZM 190.3 33.1L 204 10.2L 183.8 5L 167.3 32.7ZM 183.8 5L 184.5 24.1L 204.8 32.5L 204 10.2ZM 204.8 32.5L 226.5 12.1L 201 8.6L 184.5 24.1ZM 201 8.6L 211.6 26.2L 228.8 15.9L 226.5 12.1Z" fill-rule="nonzero"></path></g></g></g><g id="g-root-1.cu_sy_1ha2ldg65e39q-fill" data-item-order="999760928" data-item-id="1.cu_sy_1ha2ldg65e39q" data-item-class="Part Indexed Indexed_1 Fill Stroke" data-item-index="1" data-renderer-id="0" transform="translate(4, 74)"><g id="1.cu_sy_1ha2ldg65e39q-fill" stroke="none" fill="#cedfff"><g><path d="M 2.2 103L 6.8 106.7L 25.7 96.5L 15 87.6ZM 25.7 96.5L 20.1 46.4L 0.6 51.9L 6.8 106.7ZM 0.6 51.9L 28.3 110.9L 47.6 104.9L 20.1 46.4ZM 47.6 104.9L 32.1 8.3L 12.7 14.1L 28.3 110.9ZM 12.7 14.1L 55.4 109.5L 74.5 103.3L 32.1 8.3ZM 74.5 103.3L 54.9 10.7L 35.7 16.7L 55.4 109.5ZM 35.7 16.7L 74.9 109.3L 94.3 103.7L 54.9 10.7ZM 94.3 103.7L 79.8 12.7L 60.6 18.9L 74.9 109.3ZM 60.6 18.9L 103.6 105.5L 122.7 98.9L 79.8 12.7ZM 122.7 98.9L 104.6 10.4L 85.4 16.6L 103.6 105.5ZM 85.4 16.6L 127.1 108.6L 146.4 102.7L 104.6 10.4ZM 146.4 102.7L 130.8 11L 111.4 16.5L 127.1 108.6ZM 111.4 16.5L 147.4 105.5L 166.8 100.2L 130.8 11ZM 166.8 100.2L 153.2 11.2L 133.9 17.7L 147.4 105.5ZM 133.9 17.7L 168.5 82L 187.7 75.4L 153.2 11.2ZM 187.7 75.4L 176.9 8.8L 157.7 15.4L 168.5 82ZM 157.7 15.4L 167.3 32.7L 190.3 33.1L 176.9 8.8ZM 190.3 33.1L 204 10.2L 183.8 5L 167.3 32.7ZM 183.8 5L 184.5 24.1L 204.8 32.5L 204 10.2ZM 204.8 32.5L 226.5 12.1L 201 8.6L 184.5 24.1ZM 201 8.6L 211.6 26.2L 228.8 15.9L 226.5 12.1Z" fill-rule="nonzero"></path></g></g></g><g id="g-root-2.cu_sy_1cu939065e41z-fill" data-item-order="999760930" data-item-id="2.cu_sy_1cu939065e41z" data-item-class="Part Indexed Fill Stroke" data-item-index="2" data-renderer-id="0" transform="translate(172.00009155273438, 74)"><g id="2.cu_sy_1cu939065e41z-fill" stroke="none" fill="#cef3ff"><g><path d="M 6.299908 118.7L 4.999908 132.5L 24.999908 133.6L 26.199908 120.5ZM 24.999908 133.6L 26.399908 66.7L 6.299908 70.9L 4.999908 132.5ZM 6.299908 70.9L 35.699908 135.5L 54.799908 129.3L 26.399908 66.7ZM 54.799908 129.3L 34.399908 30.4L 15.099908 36.1L 35.699908 135.5ZM 15.099908 36.1L 52.199908 130.4L 71.499908 124.8L 34.399908 30.4ZM 71.499908 124.8L 50.999908 18.7L 32.299908 27.2L 52.199908 130.4ZM 32.299908 27.2L 39.099908 33L 46.099908 37.4L 65.099908 43.4L 100.399908 134L 119.699908 128.5L 84.799908 38.9L 66.499908 23.3L 52.099908 20.1L 50.999908 18.7ZM 119.699908 128.5L 102.899908 37L 83.599908 42.8L 100.399908 134ZM 83.599908 42.8L 122.099908 131.2L 141.599908 125.7L 102.899908 37ZM 141.599908 125.7L 128.899908 36.2L 109.499908 41.9L 122.099908 131.2ZM 109.499908 41.9L 151.599908 131.5L 170.399908 124.6L 128.899908 36.2ZM 170.399908 124.6L 146.399908 33.4L 127.699908 40.8L 151.599908 131.5ZM 127.699908 40.8L 168.499908 116.9L 187.799908 110.6L 146.399908 33.4ZM 187.799908 110.6L 177.099908 33.8L 157.599908 38.8L 168.499908 116.9ZM 157.599908 38.8L 165.999908 61L 188.099908 63L 177.099908 33.8ZM 188.099908 63L 205.299908 34.4L 184.499908 30.1L 165.999908 61ZM 184.499908 30.1L 186.399908 44.4L 207.399908 50.3L 205.299908 34.4ZM 207.399908 50.3L 222.799908 31.6L 198.999908 29L 186.399908 44.4ZM 198.999908 29L 209.599908 49.8L 227.399908 40.8L 222.799908 31.6ZM 34.999908 42L 74.999908 133L 93.299908 124.9L 53.399908 34Z" fill-rule="nonzero"></path></g></g></g><g id="g-root-2.cu_sy_1cu939065e41z-fill" data-item-order="999760930" data-item-id="2.cu_sy_1cu939065e41z" data-item-class="Part Indexed Fill Stroke" data-item-index="2" data-renderer-id="0" transform="translate(172.00009155273438, 74)"><g id="2.cu_sy_1cu939065e41z-fill" stroke="none" fill="#cef3ff"><g><path d="M 6.299908 118.7L 4.999908 132.5L 24.999908 133.6L 26.199908 120.5ZM 24.999908 133.6L 26.399908 66.7L 6.299908 70.9L 4.999908 132.5ZM 6.299908 70.9L 35.699908 135.5L 54.799908 129.3L 26.399908 66.7ZM 54.799908 129.3L 34.399908 30.4L 15.099908 36.1L 35.699908 135.5ZM 15.099908 36.1L 52.199908 130.4L 71.499908 124.8L 34.399908 30.4ZM 71.499908 124.8L 50.999908 18.7L 32.299908 27.2L 52.199908 130.4ZM 32.299908 27.2L 39.099908 33L 46.099908 37.4L 65.099908 43.4L 100.399908 134L 119.699908 128.5L 84.799908 38.9L 66.499908 23.3L 52.099908 20.1L 50.999908 18.7ZM 119.699908 128.5L 102.899908 37L 83.599908 42.8L 100.399908 134ZM 83.599908 42.8L 122.099908 131.2L 141.599908 125.7L 102.899908 37ZM 141.599908 125.7L 128.899908 36.2L 109.499908 41.9L 122.099908 131.2ZM 109.499908 41.9L 151.599908 131.5L 170.399908 124.6L 128.899908 36.2ZM 170.399908 124.6L 146.399908 33.4L 127.699908 40.8L 151.599908 131.5ZM 127.699908 40.8L 168.499908 116.9L 187.799908 110.6L 146.399908 33.4ZM 187.799908 110.6L 177.099908 33.8L 157.599908 38.8L 168.499908 116.9ZM 157.599908 38.8L 165.999908 61L 188.099908 63L 177.099908 33.8ZM 188.099908 63L 205.299908 34.4L 184.499908 30.1L 165.999908 61ZM 184.499908 30.1L 186.399908 44.4L 207.399908 50.3L 205.299908 34.4ZM 207.399908 50.3L 222.799908 31.6L 198.999908 29L 186.399908 44.4ZM 198.999908 29L 209.599908 49.8L 227.399908 40.8L 222.799908 31.6ZM 34.999908 42L 74.999908 133L 93.299908 124.9L 53.399908 34Z" fill-rule="nonzero"></path></g></g></g><g id="g-root-3.cu_sy_1cu939065e420-fill" data-item-order="999760932" data-item-id="3.cu_sy_1cu939065e420" data-item-class="Part Indexed Fill Stroke" data-item-index="3" data-renderer-id="0" transform="translate(340.0000915527344, 98)"><g id="3.cu_sy_1cu939065e420-fill" stroke="none" fill="#d5f7e8"><g><path d="M 3.699908 117.8L 6.099908 126.7L 26.099908 123.8L 22.999908 112.5ZM 26.099908 123.8L 25.099908 63.7L 5.199908 67.6L 6.099908 126.7ZM 5.199908 67.6L 30.599908 132.6L 50.099908 127.6L 25.099908 63.7ZM 50.099908 127.6L 37.999908 35.1L 18.399908 39.9L 30.599908 132.6ZM 18.399908 39.9L 52.699908 134.3L 72.099908 129.1L 37.999908 35.1ZM 72.099908 129.1L 54.599908 31.2L 35.399908 37.4L 52.699908 134.3ZM 35.399908 37.4L 80.799908 133.2L 99.799908 126.6L 54.599908 31.2ZM 99.799908 126.6L 79.199908 35.9L 60.199908 42.7L 80.799908 133.2ZM 60.199908 42.7L 106.099908 133.6L 124.899908 126.5L 79.199908 35.9ZM 124.899908 126.5L 101.499908 36.7L 82.499908 43.5L 106.099908 133.6ZM 82.499908 43.5L 124.199908 134L 143.699908 128.4L 101.499908 36.7ZM 143.699908 128.4L 132.299908 36.9L 112.699908 42.1L 124.199908 134ZM 112.699908 42.1L 148.199908 126.9L 167.399908 120.8L 132.299908 36.9ZM 167.399908 120.8L 148.399908 32.5L 129.399908 39.3L 148.199908 126.9ZM 129.399908 39.3L 166.899908 112.6L 185.899908 105.9L 148.399908 32.5ZM 185.899908 105.9L 170.399908 29.5L 151.399908 36.3L 166.899908 112.6ZM 151.399908 36.3L 165.199908 62.7L 187.899908 62.8L 170.399908 29.5ZM 187.899908 62.8L 201.199908 37.4L 178.099908 38.4L 165.199908 62.7ZM 178.099908 38.4L 184.299908 48.1L 209.699908 50.5L 201.199908 37.4ZM 209.699908 50.5L 212.999908 47.1L 214.099908 47.8L 225.099908 31.1L 225.299908 31.3L 197.499908 34.3L 184.299908 48.1ZM 15.499908 41.1L 20.799908 40L 29.199908 38.2L 53.199908 25.1L 32.799908 14.4L 21.299908 21.7L 18.299908 21.3ZM 32.799908 14.4L 33.499908 34.4L 53.499908 33.7L 53.199908 25.1Z" fill-rule="nonzero"></path></g></g></g><g id="g-root-3.cu_sy_1cu939065e420-fill" data-item-order="999760932" data-item-id="3.cu_sy_1cu939065e420" data-item-class="Part Indexed Fill Stroke" data-item-index="3" data-renderer-id="0" transform="translate(340.0000915527344, 98)"><g id="3.cu_sy_1cu939065e420-fill" stroke="none" fill="#d5f7e8"><g><path d="M 3.699908 117.8L 6.099908 126.7L 26.099908 123.8L 22.999908 112.5ZM 26.099908 123.8L 25.099908 63.7L 5.199908 67.6L 6.099908 126.7ZM 5.199908 67.6L 30.599908 132.6L 50.099908 127.6L 25.099908 63.7ZM 50.099908 127.6L 37.999908 35.1L 18.399908 39.9L 30.599908 132.6ZM 18.399908 39.9L 52.699908 134.3L 72.099908 129.1L 37.999908 35.1ZM 72.099908 129.1L 54.599908 31.2L 35.399908 37.4L 52.699908 134.3ZM 35.399908 37.4L 80.799908 133.2L 99.799908 126.6L 54.599908 31.2ZM 99.799908 126.6L 79.199908 35.9L 60.199908 42.7L 80.799908 133.2ZM 60.199908 42.7L 106.099908 133.6L 124.899908 126.5L 79.199908 35.9ZM 124.899908 126.5L 101.499908 36.7L 82.499908 43.5L 106.099908 133.6ZM 82.499908 43.5L 124.199908 134L 143.699908 128.4L 101.499908 36.7ZM 143.699908 128.4L 132.299908 36.9L 112.699908 42.1L 124.199908 134ZM 112.699908 42.1L 148.199908 126.9L 167.399908 120.8L 132.299908 36.9ZM 167.399908 120.8L 148.399908 32.5L 129.399908 39.3L 148.199908 126.9ZM 129.399908 39.3L 166.899908 112.6L 185.899908 105.9L 148.399908 32.5ZM 185.899908 105.9L 170.399908 29.5L 151.399908 36.3L 166.899908 112.6ZM 151.399908 36.3L 165.199908 62.7L 187.899908 62.8L 170.399908 29.5ZM 187.899908 62.8L 201.199908 37.4L 178.099908 38.4L 165.199908 62.7ZM 178.099908 38.4L 184.299908 48.1L 209.699908 50.5L 201.199908 37.4ZM 209.699908 50.5L 212.999908 47.1L 214.099908 47.8L 225.099908 31.1L 225.299908 31.3L 197.499908 34.3L 184.299908 48.1ZM 15.499908 41.1L 20.799908 40L 29.199908 38.2L 53.199908 25.1L 32.799908 14.4L 21.299908 21.7L 18.299908 21.3ZM 32.799908 14.4L 33.499908 34.4L 53.499908 33.7L 53.199908 25.1Z" fill-rule="nonzero"></path></g></g></g><g id="g-root-4.cu_sy_18efl4k65e4u9-fill" data-item-order="999760934" data-item-id="4.cu_sy_18efl4k65e4u9" data-item-class="Part Indexed Fill Stroke" data-item-index="4" data-renderer-id="0" transform="translate(508.0001220703125, 122)"><g id="4.cu_sy_18efl4k65e4u9-fill" stroke="none" fill="#ecf7d5"><g><path d="M -5.500122 129.4L -4.700122 139.8L 15.199878 138.1L 14.399878 127.9ZM 15.199878 138.1L 8.799878 67.2L -10.800122 73.3L -4.700122 139.8ZM -10.800122 73.3L 26.599878 138.2L 45.099878 130.2L 8.799878 67.2ZM 45.099878 130.2L 11.399878 17.9L -7.400122 24.6L 26.599878 138.2ZM -7.400122 24.6L 42.499878 143.4L 61.599878 137.2L 11.399878 17.9ZM 61.599878 137.2L 34.599878 21.4L 17.299878 35.3L 42.499878 143.4ZM 17.299878 35.3L 27.299878 37.8L 47.299878 33.9L 63.499878 19.1L 39.599878 15.7L 34.399878 21.3L 34.599878 21.4ZM 39.599878 15.7L 46.199878 28.2L 71.499878 37.5L 76.799878 35.7L 124.999878 146.2L 143.999878 139.7L 95.099878 27.8L 68.799878 17.4L 63.799878 19.6L 63.499878 19.1ZM 143.999878 139.7L 115.199878 24.1L 96.099878 30.3L 124.999878 146.2ZM 96.099878 30.3L 140.399878 141.7L 159.499878 135.5L 115.199878 24.1ZM 159.499878 135.5L 131.699878 23.7L 112.699878 30.1L 140.399878 141.7ZM 112.699878 30.1L 161.999878 145.1L 181.099878 138.8L 131.699878 23.7ZM 181.099878 138.8L 155.299878 24.9L 136.399878 31.8L 161.999878 145.1ZM 136.399878 31.8L 173.999878 104.6L 193.199878 98.1L 155.299878 24.9ZM 193.199878 98.1L 179.799878 23.1L 160.599878 29L 173.999878 104.6ZM 160.599878 29L 177.299878 66.5L 198.299878 64.3L 179.799878 23.1ZM 198.299878 64.3L 206.999878 24.8L 185.999878 27.1L 177.299878 66.5ZM 185.999878 27.1L 199.299878 55.5L 221.799878 56.4L 206.999878 24.8ZM 221.799878 56.4L 238.099878 28.2L 216.499878 25.6L 199.299878 55.5ZM 216.499878 25.6L 222.199878 45.4L 241.399878 39.8L 238.099878 28.2ZM 16.799878 28.9L 71.599878 138.4L 90.299878 131.1L 34.699878 20ZM 90.299878 131.1L 57.599878 17.9L 38.799878 24.8L 71.599878 138.4ZM 38.799878 24.8L 93.099878 146.2L 111.299878 138L 57.599878 17.9Z" fill-rule="nonzero"></path></g></g></g><g id="g-root-4.cu_sy_18efl4k65e4u9-fill" data-item-order="999760934" data-item-id="4.cu_sy_18efl4k65e4u9" data-item-class="Part Indexed Fill Stroke" data-item-index="4" data-renderer-id="0" transform="translate(508.0001220703125, 122)"><g id="4.cu_sy_18efl4k65e4u9-fill" stroke="none" fill="#ecf7d5"><g><path d="M -5.500122 129.4L -4.700122 139.8L 15.199878 138.1L 14.399878 127.9ZM 15.199878 138.1L 8.799878 67.2L -10.800122 73.3L -4.700122 139.8ZM -10.800122 73.3L 26.599878 138.2L 45.099878 130.2L 8.799878 67.2ZM 45.099878 130.2L 11.399878 17.9L -7.400122 24.6L 26.599878 138.2ZM -7.400122 24.6L 42.499878 143.4L 61.599878 137.2L 11.399878 17.9ZM 61.599878 137.2L 34.599878 21.4L 17.299878 35.3L 42.499878 143.4ZM 17.299878 35.3L 27.299878 37.8L 47.299878 33.9L 63.499878 19.1L 39.599878 15.7L 34.399878 21.3L 34.599878 21.4ZM 39.599878 15.7L 46.199878 28.2L 71.499878 37.5L 76.799878 35.7L 124.999878 146.2L 143.999878 139.7L 95.099878 27.8L 68.799878 17.4L 63.799878 19.6L 63.499878 19.1ZM 143.999878 139.7L 115.199878 24.1L 96.099878 30.3L 124.999878 146.2ZM 96.099878 30.3L 140.399878 141.7L 159.499878 135.5L 115.199878 24.1ZM 159.499878 135.5L 131.699878 23.7L 112.699878 30.1L 140.399878 141.7ZM 112.699878 30.1L 161.999878 145.1L 181.099878 138.8L 131.699878 23.7ZM 181.099878 138.8L 155.299878 24.9L 136.399878 31.8L 161.999878 145.1ZM 136.399878 31.8L 173.999878 104.6L 193.199878 98.1L 155.299878 24.9ZM 193.199878 98.1L 179.799878 23.1L 160.599878 29L 173.999878 104.6ZM 160.599878 29L 177.299878 66.5L 198.299878 64.3L 179.799878 23.1ZM 198.299878 64.3L 206.999878 24.8L 185.999878 27.1L 177.299878 66.5ZM 185.999878 27.1L 199.299878 55.5L 221.799878 56.4L 206.999878 24.8ZM 221.799878 56.4L 238.099878 28.2L 216.499878 25.6L 199.299878 55.5ZM 216.499878 25.6L 222.199878 45.4L 241.399878 39.8L 238.099878 28.2ZM 16.799878 28.9L 71.599878 138.4L 90.299878 131.1L 34.699878 20ZM 90.299878 131.1L 57.599878 17.9L 38.799878 24.8L 71.599878 138.4ZM 38.799878 24.8L 93.099878 146.2L 111.299878 138L 57.599878 17.9Z" fill-rule="nonzero"></path></g></g></g><g id="g-root-5.cu_sy_18efl4k65e4ua-fill" data-item-order="999760936" data-item-id="5.cu_sy_18efl4k65e4ua" data-item-class="Part Indexed Fill Stroke" data-item-index="5" data-renderer-id="0" transform="translate(676, 146)"><g id="5.cu_sy_18efl4k65e4ua-fill" stroke="none" fill="#fff9ce"><g><path d="M 5.2 118.7L 5.1 126.2L 25.1 126.1L 25.2 118.9ZM 25.1 126.1L 24 64.2L 4.1 69L 5.1 126.2ZM 4.1 69L 35 131.8L 53.8 124.8L 24 64.2ZM 53.8 124.8L 28.3 29L 9.6 36.3L 35 131.8ZM 9.6 36.3L 58 128.5L 77 121.8L 28.3 29ZM 77 121.8L 58.7 29.7L 39.5 35.4L 58 128.5ZM 39.5 35.4L 77 129.9L 96.4 124.5L 58.7 29.7ZM 96.4 124.5L 81.8 34.6L 62.4 40.1L 77 129.9ZM 62.4 40.1L 101.7 134.4L 121.2 129.1L 81.8 34.6ZM 121.2 129.1L 108.7 37.3L 89.3 42.5L 101.7 134.4ZM 89.3 42.5L 126.7 133.2L 146.1 127.7L 108.7 37.3ZM 146.1 127.7L 130.9 34.3L 111.6 40L 126.7 133.2ZM 111.6 40L 150.4 127.2L 169.7 121.4L 130.9 34.3ZM 169.7 121.4L 155.3 31.8L 135.9 36.7L 150.4 127.2ZM 135.9 36.7L 162.7 113L 182.4 108.8L 155.3 31.8ZM 182.4 108.8L 176.3 31.8L 156.5 34.2L 162.7 113ZM 156.5 34.2L 160.7 60.1L 181.8 65.3L 176.3 31.8ZM 181.8 65.3L 204.4 35.4L 182.9 30.6L 160.7 60.1ZM 182.9 30.6L 186.1 45.3L 207.9 51.7L 204.4 35.4ZM 207.9 51.7L 229.5 29.9L 204.3 26.9L 186.1 45.3ZM 204.3 26.9L 214.3 43.6L 231.5 33.3L 229.5 29.9ZM 30.6 23.7L 36.1 35.7L 54.3 27.3L 48.7 15.3Z" fill-rule="nonzero"></path></g></g></g><g id="g-root-5.cu_sy_18efl4k65e4ua-fill" data-item-order="999760936" data-item-id="5.cu_sy_18efl4k65e4ua" data-item-class="Part Indexed Fill Stroke" data-item-index="5" data-renderer-id="0" transform="translate(676, 146)"><g id="5.cu_sy_18efl4k65e4ua-fill" stroke="none" fill="#fff9ce"><g><path d="M 5.2 118.7L 5.1 126.2L 25.1 126.1L 25.2 118.9ZM 25.1 126.1L 24 64.2L 4.1 69L 5.1 126.2ZM 4.1 69L 35 131.8L 53.8 124.8L 24 64.2ZM 53.8 124.8L 28.3 29L 9.6 36.3L 35 131.8ZM 9.6 36.3L 58 128.5L 77 121.8L 28.3 29ZM 77 121.8L 58.7 29.7L 39.5 35.4L 58 128.5ZM 39.5 35.4L 77 129.9L 96.4 124.5L 58.7 29.7ZM 96.4 124.5L 81.8 34.6L 62.4 40.1L 77 129.9ZM 62.4 40.1L 101.7 134.4L 121.2 129.1L 81.8 34.6ZM 121.2 129.1L 108.7 37.3L 89.3 42.5L 101.7 134.4ZM 89.3 42.5L 126.7 133.2L 146.1 127.7L 108.7 37.3ZM 146.1 127.7L 130.9 34.3L 111.6 40L 126.7 133.2ZM 111.6 40L 150.4 127.2L 169.7 121.4L 130.9 34.3ZM 169.7 121.4L 155.3 31.8L 135.9 36.7L 150.4 127.2ZM 135.9 36.7L 162.7 113L 182.4 108.8L 155.3 31.8ZM 182.4 108.8L 176.3 31.8L 156.5 34.2L 162.7 113ZM 156.5 34.2L 160.7 60.1L 181.8 65.3L 176.3 31.8ZM 181.8 65.3L 204.4 35.4L 182.9 30.6L 160.7 60.1ZM 182.9 30.6L 186.1 45.3L 207.9 51.7L 204.4 35.4ZM 207.9 51.7L 229.5 29.9L 204.3 26.9L 186.1 45.3ZM 204.3 26.9L 214.3 43.6L 231.5 33.3L 229.5 29.9ZM 30.6 23.7L 36.1 35.7L 54.3 27.3L 48.7 15.3Z" fill-rule="nonzero"></path></g></g></g><g id="g-root-6.cu_sy_zjf1ys65e2h7-fill" data-item-order="999760938" data-item-id="6.cu_sy_zjf1ys65e2h7" data-item-class="Part Indexed Fill Stroke" data-item-index="6" data-renderer-id="0" transform="translate(844, 170)"><g id="6.cu_sy_zjf1ys65e2h7-fill" stroke="none" fill="#fde6cf"><g><path d="M 3.1 31.3L 3.4 38.1L 23.9 51.8L 23.1 30.5ZM 23.9 51.8L 48.5 42.7L 32.3 27.4L 3.4 38.1ZM 32.3 27.4L 3.3 122.8L 21.9 130.3L 48.5 42.7ZM 21.9 130.3L 70.3 35.8L 51.2 29.1L 3.3 122.8ZM 51.2 29.1L 31.1 126.7L 50.3 132.6L 70.3 35.8ZM 50.3 132.6L 90.7 35L 71.4 29.2L 31.1 126.7ZM 71.4 29.2L 53.1 124.1L 72.3 130L 90.7 35ZM 72.3 130L 111.4 40.2L 92.2 34L 53.1 124.1ZM 92.2 34L 73.1 123.7L 92.1 130.2L 111.4 40.2ZM 92.1 130.2L 136.1 37.6L 117 31.2L 73.1 123.7ZM 117 31.2L 99.2 121.3L 118.3 127.7L 136.1 37.6ZM 118.3 127.7L 159.8 42.1L 140.7 35.6L 99.2 121.3ZM 140.7 35.6L 122.1 124.7L 141.3 130.5L 159.8 42.1ZM 141.3 130.5L 180.6 32.2L 161.4 26.5L 122.1 124.7ZM 161.4 26.5L 141.6 126.1L 160.6 133.3L 180.6 32.2ZM 160.6 133.3L 202.2 61.1L 183.4 53.7L 141.6 126.1ZM 183.4 53.7L 167.7 121L 186.5 128.4L 202.2 61.1ZM 186.5 128.4L 214.8 79.2L 195.9 72L 167.7 121ZM 195.9 72L 193.3 84.4L 212.9 88.5L 214.8 79.2ZM 35.6 15.8L 27.4 30.3L 44.7 40.2L 53 25.7Z" fill-rule="nonzero"></path></g></g></g><g id="g-root-6.cu_sy_zjf1ys65e2h7-fill" data-item-order="999760938" data-item-id="6.cu_sy_zjf1ys65e2h7" data-item-class="Part Indexed Fill Stroke" data-item-index="6" data-renderer-id="0" transform="translate(844, 170)"><g id="6.cu_sy_zjf1ys65e2h7-fill" stroke="none" fill="#fde6cf"><g><path d="M 3.1 31.3L 3.4 38.1L 23.9 51.8L 23.1 30.5ZM 23.9 51.8L 48.5 42.7L 32.3 27.4L 3.4 38.1ZM 32.3 27.4L 3.3 122.8L 21.9 130.3L 48.5 42.7ZM 21.9 130.3L 70.3 35.8L 51.2 29.1L 3.3 122.8ZM 51.2 29.1L 31.1 126.7L 50.3 132.6L 70.3 35.8ZM 50.3 132.6L 90.7 35L 71.4 29.2L 31.1 126.7ZM 71.4 29.2L 53.1 124.1L 72.3 130L 90.7 35ZM 72.3 130L 111.4 40.2L 92.2 34L 53.1 124.1ZM 92.2 34L 73.1 123.7L 92.1 130.2L 111.4 40.2ZM 92.1 130.2L 136.1 37.6L 117 31.2L 73.1 123.7ZM 117 31.2L 99.2 121.3L 118.3 127.7L 136.1 37.6ZM 118.3 127.7L 159.8 42.1L 140.7 35.6L 99.2 121.3ZM 140.7 35.6L 122.1 124.7L 141.3 130.5L 159.8 42.1ZM 141.3 130.5L 180.6 32.2L 161.4 26.5L 122.1 124.7ZM 161.4 26.5L 141.6 126.1L 160.6 133.3L 180.6 32.2ZM 160.6 133.3L 202.2 61.1L 183.4 53.7L 141.6 126.1ZM 183.4 53.7L 167.7 121L 186.5 128.4L 202.2 61.1ZM 186.5 128.4L 214.8 79.2L 195.9 72L 167.7 121ZM 195.9 72L 193.3 84.4L 212.9 88.5L 214.8 79.2ZM 35.6 15.8L 27.4 30.3L 44.7 40.2L 53 25.7Z" fill-rule="nonzero"></path></g></g></g><g id="g-root-tx_createch_dl26k465co3u-fill" data-item-order="1000000000" data-item-id="tx_createch_dl26k465co3u" data-item-class="Label Stroke Indexed Indexed_1 InsideFill InsideColorFill" data-item-index="1" data-renderer-id="0" transform="translate(28, 86)"><g id="tx_createch_dl26k465co3u-fill" stroke="none" fill="#484848"><g><text style="font: 20px &quot;Shantell Sans&quot;, cursive; white-space: pre;" font-weight="20px" font-size="&quot;Shantell" font-family="Sans', cursive"><tspan x="12.18" y="35.5" dominant-baseline="ideographic">Create/Edit </tspan><tspan x="15.35" y="59.5" dominant-baseline="ideographic">CheCluster </tspan><tspan x="38.89" y="83.5" dominant-baseline="ideographic">YAML</tspan></text></g></g></g><g id="g-root-tx_parseyam_958ofo65cow4-fill" data-item-order="1000000000" data-item-id="tx_parseyam_958ofo65cow4" data-item-class="Label Stroke Indexed InsideFill InsideColorFill" data-item-index="2" data-renderer-id="0" transform="translate(190, 122)"><g id="tx_parseyam_958ofo65cow4-fill" stroke="none" fill="#484848"><g><text style="font: 20px &quot;Shantell Sans&quot;, cursive; white-space: pre;" font-weight="20px" font-size="&quot;Shantell" font-family="Sans', cursive"><tspan x="15.82" y="35.5" dominant-baseline="ideographic">Parse YAML </tspan><tspan x="14.84" y="59.5" dominant-baseline="ideographic">by Operator</tspan></text></g></g></g><g id="g-root-tx_thesyste_1ha2ldg65e39p-fill" data-item-order="1000000000" data-item-id="tx_thesyste_1ha2ldg65e39p" data-item-class="Label Stroke Indexed" data-item-index="6" data-renderer-id="0" transform="translate(856, 314)"><g id="tx_thesyste_1ha2ldg65e39p-fill" stroke="none" fill="#484848"><g><text style="font: 20px &quot;Shantell Sans&quot;, cursive; white-space: pre;" font-weight="20px" font-size="&quot;Shantell" font-family="Sans', cursive"><tspan x="12" y="35.5" dominant-baseline="ideographic">The Dev </tspan><tspan x="12" y="59.5" dominant-baseline="ideographic">Spaces </tspan><tspan x="12" y="83.5" dominant-baseline="ideographic">operator </tspan><tspan x="12" y="107.5" dominant-baseline="ideographic">monitors the </tspan><tspan x="12" y="131.5" dominant-baseline="ideographic">configuration </tspan><tspan x="12" y="155.5" dominant-baseline="ideographic">changes and </tspan><tspan x="12" y="179.5" dominant-baseline="ideographic">restarts pods </tspan><tspan x="12" y="203.5" dominant-baseline="ideographic">as needed</tspan></text></g></g></g><g id="g-root-tx_convertt_958ofo65cow6-fill" data-item-order="1000000000" data-item-id="tx_convertt_958ofo65cow6" data-item-class="Label Stroke Indexed InsideFill InsideColorFill" data-item-index="3" data-renderer-id="0" transform="translate(364, 146)"><g id="tx_convertt_958ofo65cow6-fill" stroke="none" fill="#484848"><g><text style="font: 20px &quot;Shantell Sans&quot;, cursive; white-space: pre;" font-weight="20px" font-size="&quot;Shantell" font-family="Sans', cursive"><tspan x="16.34" y="35.5" dominant-baseline="ideographic">Convert to </tspan><tspan x="15.09" y="59.5" dominant-baseline="ideographic">ConfigMap</tspan></text></g></g></g><g id="g-root-tx_applycon_4pf6b865cpog-fill" data-item-order="1000000000" data-item-id="tx_applycon_4pf6b865cpog" data-item-class="Label Stroke Indexed InsideFill InsideColorFill" data-item-index="4" data-renderer-id="0" transform="translate(520, 158)"><g id="tx_applycon_4pf6b865cpog-fill" stroke="none" fill="#484848"><g><text style="font: 20px &quot;Shantell Sans&quot;, cursive; white-space: pre;" font-weight="20px" font-size="&quot;Shantell" font-family="Sans', cursive"><tspan x="52.76" y="35.5" dominant-baseline="ideographic">Apply </tspan><tspan x="14.19" y="59.5" dominant-baseline="ideographic">ConfigMap to </tspan><tspan x="20.57" y="83.5" dominant-baseline="ideographic">Components</tspan></text></g></g></g><g id="g-root-tx_initiate_dl26k465co3v-fill" data-item-order="1000000000" data-item-id="tx_initiate_dl26k465co3v" data-item-class="Label Stroke Indexed Indexed_1" data-item-index="1" data-renderer-id="0" transform="translate(16, 194)"><g id="tx_initiate_dl26k465co3v-fill" stroke="none" fill="#484848"><g><text style="font: 20px &quot;Shantell Sans&quot;, cursive; white-space: pre;" font-weight="20px" font-size="&quot;Shantell" font-family="Sans', cursive"><tspan x="12" y="35.5" dominant-baseline="ideographic">Initiate the </tspan><tspan x="12" y="59.5" dominant-baseline="ideographic">configuration </tspan><tspan x="12" y="83.5" dominant-baseline="ideographic">process by </tspan><tspan x="12" y="107.5" dominant-baseline="ideographic">creating/editing </tspan><tspan x="12" y="131.5" dominant-baseline="ideographic">a YAML file</tspan></text></g></g></g><g id="g-root-tx_theopera_958ofo65cow5-fill" data-item-order="1000000000" data-item-id="tx_theopera_958ofo65cow5" data-item-class="Label Stroke Indexed" data-item-index="2" data-renderer-id="0" transform="translate(184, 218)"><g id="tx_theopera_958ofo65cow5-fill" stroke="none" fill="#484848"><g><text style="font: 20px &quot;Shantell Sans&quot;, cursive; white-space: pre;" font-weight="20px" font-size="&quot;Shantell" font-family="Sans', cursive"><tspan x="12" y="35.5" dominant-baseline="ideographic">The operator </tspan><tspan x="12" y="59.5" dominant-baseline="ideographic">parses the </tspan><tspan x="12" y="83.5" dominant-baseline="ideographic">YAML file to </tspan><tspan x="12" y="107.5" dominant-baseline="ideographic">extract </tspan><tspan x="12" y="131.5" dominant-baseline="ideographic">configuration </tspan><tspan x="12" y="155.5" dominant-baseline="ideographic">details</tspan></text></g></g></g><g id="g-root-tx_createpo_1uuw81g65cqa2-fill" data-item-order="1000000000" data-item-id="tx_createpo_1uuw81g65cqa2" data-item-class="Label Stroke Indexed InsideFill InsideColorFill" data-item-index="5" data-renderer-id="0" transform="translate(700, 206)"><g id="tx_createpo_1uuw81g65cqa2-fill" stroke="none" fill="#484848"><g><text style="font: 20px &quot;Shantell Sans&quot;, cursive; white-space: pre;" font-weight="20px" font-size="&quot;Shantell" font-family="Sans', cursive"><tspan x="12.48" y="35.5" dominant-baseline="ideographic">Create Pods</tspan></text></g></g></g><g id="g-root-tx_detectco_1q5plmc65e2h0-fill" data-item-order="1000000000" data-item-id="tx_detectco_1q5plmc65e2h0" data-item-class="Label Stroke Indexed InsideFill InsideColorFill" data-item-index="6" data-renderer-id="0" transform="translate(856, 206)"><g id="tx_detectco_1q5plmc65e2h0-fill" stroke="none" fill="#484848"><g><text style="font: 20px &quot;Shantell Sans&quot;, cursive; white-space: pre;" font-weight="20px" font-size="&quot;Shantell" font-family="Sans', cursive"><tspan x="48.96" y="35.5" dominant-baseline="ideographic">Detect </tspan><tspan x="14.23" y="59.5" dominant-baseline="ideographic">Configuration </tspan><tspan x="38.84" y="83.5" dominant-baseline="ideographic">Changes</tspan></text></g></g></g><g id="g-root-tx_theparse_9lo6s65cpov-fill" data-item-order="1000000000" data-item-id="tx_theparse_9lo6s65cpov" data-item-class="Label Stroke Indexed" data-item-index="3" data-renderer-id="0" transform="translate(352, 242)"><g id="tx_theparse_9lo6s65cpov-fill" stroke="none" fill="#484848"><g><text style="font: 20px &quot;Shantell Sans&quot;, cursive; white-space: pre;" font-weight="20px" font-size="&quot;Shantell" font-family="Sans', cursive"><tspan x="12" y="35.5" dominant-baseline="ideographic">The parsed </tspan><tspan x="12" y="59.5" dominant-baseline="ideographic">data is </tspan><tspan x="12" y="83.5" dominant-baseline="ideographic">converted </tspan><tspan x="12" y="107.5" dominant-baseline="ideographic">into one or </tspan><tspan x="12" y="131.5" dominant-baseline="ideographic">more </tspan><tspan x="12" y="155.5" dominant-baseline="ideographic">ConfigMaps</tspan></text></g></g></g><g id="g-root-tx_theconfi_1uuw81g65cqa1-fill" data-item-order="1000000000" data-item-id="tx_theconfi_1uuw81g65cqa1" data-item-class="Label Stroke Indexed" data-item-index="4" data-renderer-id="0" transform="translate(520, 266)"><g id="tx_theconfi_1uuw81g65cqa1-fill" stroke="none" fill="#484848"><g><text style="font: 20px &quot;Shantell Sans&quot;, cursive; white-space: pre;" font-weight="20px" font-size="&quot;Shantell" font-family="Sans', cursive"><tspan x="12" y="35.5" dominant-baseline="ideographic">The </tspan><tspan x="12" y="59.5" dominant-baseline="ideographic">ConfigMap(s) </tspan><tspan x="12" y="83.5" dominant-baseline="ideographic">applied to </tspan><tspan x="12" y="107.5" dominant-baseline="ideographic">various </tspan><tspan x="12" y="131.5" dominant-baseline="ideographic">components</tspan></text></g></g></g><g id="g-root-tx_podsarec_1q5plmc65e2gz-fill" data-item-order="1000000000" data-item-id="tx_podsarec_1q5plmc65e2gz" data-item-class="Label Stroke Indexed" data-item-index="5" data-renderer-id="0" transform="translate(688, 290)"><g id="tx_podsarec_1q5plmc65e2gz-fill" stroke="none" fill="#484848"><g><text style="font: 20px &quot;Shantell Sans&quot;, cursive; white-space: pre;" font-weight="20px" font-size="&quot;Shantell" font-family="Sans', cursive"><tspan x="12" y="35.5" dominant-baseline="ideographic">Pods are </tspan><tspan x="12" y="59.5" dominant-baseline="ideographic">created for </tspan><tspan x="12" y="83.5" dominant-baseline="ideographic">Dev Spaces </tspan><tspan x="12" y="107.5" dominant-baseline="ideographic">components</tspan></text></g></g></g><g id="g-root-tx_checlust_mg2ppw65cqgx-fill" data-item-order="1000000000" data-item-id="tx_checlust_mg2ppw65cqgx" data-item-class="Label Stroke Title ColorFillBlack ColorStrokeBlack" data-item-index="none" data-renderer-id="0" transform="translate(346, 2)"><g id="tx_checlust_mg2ppw65cqgx-fill" stroke="none" fill="#484848"><g><text style="font: bold 25px &quot;Shantell Sans&quot;, cursive; white-space: pre;" font-weight="bold" font-size="25" font-family="'Shantell Sans', cursive"><tspan x="12.68" y="44.5" dominant-baseline="ideographic">Dev Spaces Configuration</tspan></text></g></g></g><g id="g-root-1.cu_sy_1ha2ldg65e39q-stroke" data-item-order="999760928" data-item-id="1.cu_sy_1ha2ldg65e39q" data-item-class="Part Indexed Indexed_1 Fill Stroke" data-item-index="1" data-renderer-id="0" transform="translate(4, 74)"><g id="1.cu_sy_1ha2ldg65e39q-stroke" fill="none" stroke-linecap="round" stroke-linejoin="round" stroke-miterlimit="4" stroke="#484848" stroke-width="4"><g><path d="M 10 10C 11.2 24.4 8.1 39.1 10 53.5C 12.2 70.9 10.3 88.5 10 106C 36.2 104.7 62.5 105.5 88.8 106C 118.5 106.5 148.3 107.8 178 106C 177.7 82 178 58 178 34C 193.4 25 209.8 17.6 226 10C 201.4 10.1 176.9 9.8 152.4 10C 126.6 10.2 100.7 9.4 74.9 10C 53.3 10.5 31.6 9 10 10"></path><path d="M 10 10L 10 106L 178 106L 178 34L 226 10L 10 10Z"></path></g></g></g><g id="g-root-1.cu_sy_1ha2ldg65e39q-stroke" data-item-order="999760928" data-item-id="1.cu_sy_1ha2ldg65e39q" data-item-class="Part Indexed Indexed_1 Fill Stroke" data-item-index="1" data-renderer-id="0" transform="translate(4, 74)"><g id="1.cu_sy_1ha2ldg65e39q-stroke" fill="none" stroke-linecap="round" stroke-linejoin="round" stroke-miterlimit="4" stroke="#484848" stroke-width="4"><g><path d="M 10 10C 11.2 24.4 8.1 39.1 10 53.5C 12.2 70.9 10.3 88.5 10 106C 36.2 104.7 62.5 105.5 88.8 106C 118.5 106.5 148.3 107.8 178 106C 177.7 82 178 58 178 34C 193.4 25 209.8 17.6 226 10C 201.4 10.1 176.9 9.8 152.4 10C 126.6 10.2 100.7 9.4 74.9 10C 53.3 10.5 31.6 9 10 10"></path><path d="M 10 10L 10 106L 178 106L 178 34L 226 10L 10 10Z"></path></g></g></g><g id="g-root-2.cu_sy_1cu939065e41z-stroke" data-item-order="999760930" data-item-id="2.cu_sy_1cu939065e41z" data-item-class="Part Indexed Fill Stroke" data-item-index="2" data-renderer-id="0" transform="translate(172.00009155273438, 74)"><g id="2.cu_sy_1cu939065e41z-stroke" fill="none" stroke-linecap="round" stroke-linejoin="round" stroke-miterlimit="4" stroke="#484848" stroke-width="4"><g><path d="M 9.999908 34C 9.599908 66 11.999908 98.1 9.999908 130C 35.299908 128 60.699908 129.9 86.099908 130C 116.699908 130.2 147.399908 129.5 177.999908 130C 176.699908 106 176.499908 81.9 177.999908 58C 194.699908 51.5 209.599908 41.1 225.999908 34C 207.499908 33.6 188.899908 36 170.499908 34C 154.599908 32.3 138.399908 34.3 122.399908 34C 105.399908 33.7 88.299908 34 71.299908 34C 50.899908 34 30.399908 34.8 9.999908 34M 57.999908 34C 57.199908 26 58.499908 18 57.999908 10C 42.099908 18.2 25.199908 24.5 9.999908 34C 25.899908 32.4 41.999908 33.6 57.999908 34"></path><path d="M 10 34L 10 130L 178 130L 178 58L 226 34L 10 34ZM 58 34L 58 10L 10 34L 58 34Z"></path></g></g></g><g id="g-root-2.cu_sy_1cu939065e41z-stroke" data-item-order="999760930" data-item-id="2.cu_sy_1cu939065e41z" data-item-class="Part Indexed Fill Stroke" data-item-index="2" data-renderer-id="0" transform="translate(172.00009155273438, 74)"><g id="2.cu_sy_1cu939065e41z-stroke" fill="none" stroke-linecap="round" stroke-linejoin="round" stroke-miterlimit="4" stroke="#484848" stroke-width="4"><g><path d="M 9.999908 34C 9.599908 66 11.999908 98.1 9.999908 130C 35.299908 128 60.699908 129.9 86.099908 130C 116.699908 130.2 147.399908 129.5 177.999908 130C 176.699908 106 176.499908 81.9 177.999908 58C 194.699908 51.5 209.599908 41.1 225.999908 34C 207.499908 33.6 188.899908 36 170.499908 34C 154.599908 32.3 138.399908 34.3 122.399908 34C 105.399908 33.7 88.299908 34 71.299908 34C 50.899908 34 30.399908 34.8 9.999908 34M 57.999908 34C 57.199908 26 58.499908 18 57.999908 10C 42.099908 18.2 25.199908 24.5 9.999908 34C 25.899908 32.4 41.999908 33.6 57.999908 34"></path><path d="M 10 34L 10 130L 178 130L 178 58L 226 34L 10 34ZM 58 34L 58 10L 10 34L 58 34Z"></path></g></g></g><g id="g-root-3.cu_sy_1cu939065e420-stroke" data-item-order="999760932" data-item-id="3.cu_sy_1cu939065e420" data-item-class="Part Indexed Fill Stroke" data-item-index="3" data-renderer-id="0" transform="translate(340.0000915527344, 98)"><g id="3.cu_sy_1cu939065e420-stroke" fill="none" stroke-linecap="round" stroke-linejoin="round" stroke-miterlimit="4" stroke="#484848" stroke-width="4"><g><path d="M 9.999908 34C 8.999908 66 10.599908 98 9.999908 130C 30.299908 128.6 50.799908 131.6 71.099908 130C 89.699908 128.6 108.499908 129.7 127.199908 130C 144.099908 130.3 161.099908 129.9 177.999908 130C 178.199908 106 178.899908 82 177.999908 58C 194.599908 51.3 209.899908 41.8 225.999908 34C 203.699908 35.4 181.299908 32.6 158.899908 34C 136.399908 35.4 113.799908 34.8 91.299908 34C 64.199908 33 37.099908 33.1 9.999908 34M 57.999908 34C 57.499908 26 56.499908 17.9 57.999908 10C 41.699908 17.4 26.099908 26.2 9.999908 34C 25.999908 33.8 42.099908 35.6 57.999908 34"></path><path d="M 10 34L 10 130L 178 130L 178 58L 226 34L 10 34ZM 58.000022 34L 58.000022 10L 10.000122 34L 58.000022 34Z"></path></g></g></g><g id="g-root-3.cu_sy_1cu939065e420-stroke" data-item-order="999760932" data-item-id="3.cu_sy_1cu939065e420" data-item-class="Part Indexed Fill Stroke" data-item-index="3" data-renderer-id="0" transform="translate(340.0000915527344, 98)"><g id="3.cu_sy_1cu939065e420-stroke" fill="none" stroke-linecap="round" stroke-linejoin="round" stroke-miterlimit="4" stroke="#484848" stroke-width="4"><g><path d="M 9.999908 34C 8.999908 66 10.599908 98 9.999908 130C 30.299908 128.6 50.799908 131.6 71.099908 130C 89.699908 128.6 108.499908 129.7 127.199908 130C 144.099908 130.3 161.099908 129.9 177.999908 130C 178.199908 106 178.899908 82 177.999908 58C 194.599908 51.3 209.899908 41.8 225.999908 34C 203.699908 35.4 181.299908 32.6 158.899908 34C 136.399908 35.4 113.799908 34.8 91.299908 34C 64.199908 33 37.099908 33.1 9.999908 34M 57.999908 34C 57.499908 26 56.499908 17.9 57.999908 10C 41.699908 17.4 26.099908 26.2 9.999908 34C 25.999908 33.8 42.099908 35.6 57.999908 34"></path><path d="M 10 34L 10 130L 178 130L 178 58L 226 34L 10 34ZM 58.000022 34L 58.000022 10L 10.000122 34L 58.000022 34Z"></path></g></g></g><g id="g-root-4.cu_sy_18efl4k65e4u9-stroke" data-item-order="999760934" data-item-id="4.cu_sy_18efl4k65e4u9" data-item-class="Part Indexed Fill Stroke" data-item-index="4" data-renderer-id="0" transform="translate(508.0001220703125, 122)"><g id="4.cu_sy_18efl4k65e4u9-stroke" fill="none" stroke-linecap="round" stroke-linejoin="round" stroke-miterlimit="4" stroke="#484848" stroke-width="4"><g><path d="M 9.999878 130C 10.399878 98 9.899878 66 9.999878 34C 27.999878 32.7 46.199878 32.3 64.199878 34C 82.499878 35.7 100.899878 33.3 119.199878 34C 136.599878 34.7 153.999878 32.3 171.299878 34C 189.399878 35.7 207.799878 32.9 225.999878 34C 210.199878 42.3 194.099878 50.3 177.999878 58C 179.199878 82 175.999878 106.1 177.999878 130C 163.899878 129.1 149.699878 130.2 135.599878 130C 121.099878 129.8 106.699878 130.3 92.199878 130C 77.799878 129.7 63.299878 130.5 48.799878 130C 35.899878 129.5 22.899878 131 9.999878 130M 57.999878 34C 59.499878 26.1 58.599878 18 57.999878 10C 42.099878 18.1 26.599878 27.3 9.999878 34C 25.999878 34.6 41.999878 32.7 57.999878 34"></path><path d="M 10 130L 10 34L 226 34L 178 58L 178 130L 10 130ZM 57.9999 34L 57.9999 10L 10 34L 57.9999 34Z"></path></g></g></g><g id="g-root-4.cu_sy_18efl4k65e4u9-stroke" data-item-order="999760934" data-item-id="4.cu_sy_18efl4k65e4u9" data-item-class="Part Indexed Fill Stroke" data-item-index="4" data-renderer-id="0" transform="translate(508.0001220703125, 122)"><g id="4.cu_sy_18efl4k65e4u9-stroke" fill="none" stroke-linecap="round" stroke-linejoin="round" stroke-miterlimit="4" stroke="#484848" stroke-width="4"><g><path d="M 9.999878 130C 10.399878 98 9.899878 66 9.999878 34C 27.999878 32.7 46.199878 32.3 64.199878 34C 82.499878 35.7 100.899878 33.3 119.199878 34C 136.599878 34.7 153.999878 32.3 171.299878 34C 189.399878 35.7 207.799878 32.9 225.999878 34C 210.199878 42.3 194.099878 50.3 177.999878 58C 179.199878 82 175.999878 106.1 177.999878 130C 163.899878 129.1 149.699878 130.2 135.599878 130C 121.099878 129.8 106.699878 130.3 92.199878 130C 77.799878 129.7 63.299878 130.5 48.799878 130C 35.899878 129.5 22.899878 131 9.999878 130M 57.999878 34C 59.499878 26.1 58.599878 18 57.999878 10C 42.099878 18.1 26.599878 27.3 9.999878 34C 25.999878 34.6 41.999878 32.7 57.999878 34"></path><path d="M 10 130L 10 34L 226 34L 178 58L 178 130L 10 130ZM 57.9999 34L 57.9999 10L 10 34L 57.9999 34Z"></path></g></g></g><g id="g-root-5.cu_sy_18efl4k65e4ua-stroke" data-item-order="999760936" data-item-id="5.cu_sy_18efl4k65e4ua" data-item-class="Part Indexed Fill Stroke" data-item-index="5" data-renderer-id="0" transform="translate(676, 146)"><g id="5.cu_sy_18efl4k65e4ua-stroke" fill="none" stroke-linecap="round" stroke-linejoin="round" stroke-miterlimit="4" stroke="#484848" stroke-width="4"><g><path d="M 10 34C 11.3 45.4 10.2 57 10 68.5C 9.8 78.6 11.2 88.9 10 99C 8.8 109.3 9.7 119.7 10 130C 23.4 131.2 36.8 130.4 50.3 130C 65.5 129.5 80.7 130.4 95.9 130C 110.8 129.6 125.8 130.1 140.8 130C 153.2 129.9 165.7 128.5 178 130C 179.3 106 179.7 81.9 178 58C 194.2 50.4 209.5 40.9 226 34C 206.4 33.5 186.8 35 167.2 34C 148.7 33.1 130.1 35.1 111.6 34C 95.7 33.1 79.8 33.7 63.9 34C 45.9 34.4 28 34 10 34M 58 34C 58.2 26 58.7 18 58 10C 41.7 17.4 25.7 25.4 10 34C 25.9 35.7 42 35 58 34"></path><path d="M 10.000122 34L 10.000122 130L 178.000122 130L 178.000122 58L 226.000122 34L 10.000122 34ZM 58.0001 34L 58.0001 10L 10 34L 58.0001 34Z"></path></g></g></g><g id="g-root-5.cu_sy_18efl4k65e4ua-stroke" data-item-order="999760936" data-item-id="5.cu_sy_18efl4k65e4ua" data-item-class="Part Indexed Fill Stroke" data-item-index="5" data-renderer-id="0" transform="translate(676, 146)"><g id="5.cu_sy_18efl4k65e4ua-stroke" fill="none" stroke-linecap="round" stroke-linejoin="round" stroke-miterlimit="4" stroke="#484848" stroke-width="4"><g><path d="M 10 34C 11.3 45.4 10.2 57 10 68.5C 9.8 78.6 11.2 88.9 10 99C 8.8 109.3 9.7 119.7 10 130C 23.4 131.2 36.8 130.4 50.3 130C 65.5 129.5 80.7 130.4 95.9 130C 110.8 129.6 125.8 130.1 140.8 130C 153.2 129.9 165.7 128.5 178 130C 179.3 106 179.7 81.9 178 58C 194.2 50.4 209.5 40.9 226 34C 206.4 33.5 186.8 35 167.2 34C 148.7 33.1 130.1 35.1 111.6 34C 95.7 33.1 79.8 33.7 63.9 34C 45.9 34.4 28 34 10 34M 58 34C 58.2 26 58.7 18 58 10C 41.7 17.4 25.7 25.4 10 34C 25.9 35.7 42 35 58 34"></path><path d="M 10.000122 34L 10.000122 130L 178.000122 130L 178.000122 58L 226.000122 34L 10.000122 34ZM 58.0001 34L 58.0001 10L 10 34L 58.0001 34Z"></path></g></g></g><g id="g-root-6.cu_sy_zjf1ys65e2h7-stroke" data-item-order="999760938" data-item-id="6.cu_sy_zjf1ys65e2h7" data-item-class="Part Indexed Fill Stroke" data-item-index="6" data-renderer-id="0" transform="translate(844, 170)"><g id="6.cu_sy_zjf1ys65e2h7-stroke" fill="none" stroke-linecap="round" stroke-linejoin="round" stroke-miterlimit="4" stroke="#484848" stroke-width="4"><g><path d="M 10 34C 10.1 66 9.9 98 10 130C 28.8 128.7 47.8 129.5 66.7 130C 83.1 130.4 99.7 131.4 116.1 130C 132.7 128.6 149.4 130.2 166 130C 166.3 134.3 165.2 138.7 166 143C 180.8 121.8 198.9 103 214 82C 196.7 63.1 181.5 42.4 166 22C 165.9 26 165.4 30 166 34C 141.8 34.6 117.5 33.4 93.3 34C 65.5 34.7 37.7 32.3 10 34M 58 34C 57.7 26 57.2 17.9 58 10C 41.8 17.5 25.4 24.9 10 34C 26 34.7 42 34.1 58 34"></path><path d="M 10 34L 10 130L 166 130L 166 143L 214 82L 166 22L 166 34L 10 34ZM 58 34L 58 10L 10 34L 58 34Z"></path></g></g></g><g id="g-root-6.cu_sy_zjf1ys65e2h7-stroke" data-item-order="999760938" data-item-id="6.cu_sy_zjf1ys65e2h7" data-item-class="Part Indexed Fill Stroke" data-item-index="6" data-renderer-id="0" transform="translate(844, 170)"><g id="6.cu_sy_zjf1ys65e2h7-stroke" fill="none" stroke-linecap="round" stroke-linejoin="round" stroke-miterlimit="4" stroke="#484848" stroke-width="4"><g><path d="M 10 34C 10.1 66 9.9 98 10 130C 28.8 128.7 47.8 129.5 66.7 130C 83.1 130.4 99.7 131.4 116.1 130C 132.7 128.6 149.4 130.2 166 130C 166.3 134.3 165.2 138.7 166 143C 180.8 121.8 198.9 103 214 82C 196.7 63.1 181.5 42.4 166 22C 165.9 26 165.4 30 166 34C 141.8 34.6 117.5 33.4 93.3 34C 65.5 34.7 37.7 32.3 10 34M 58 34C 57.7 26 57.2 17.9 58 10C 41.8 17.5 25.4 24.9 10 34C 26 34.7 42 34.1 58 34"></path><path d="M 10 34L 10 130L 166 130L 166 143L 214 82L 166 22L 166 34L 10 34ZM 58 34L 58 10L 10 34L 58 34Z"></path></g></g></g><g id="g-root-tx_createch_dl26k465co3u-stroke" data-item-order="1000000000" data-item-id="tx_createch_dl26k465co3u" data-item-class="Label Stroke Indexed Indexed_1 InsideFill InsideColorFill" data-item-index="1" data-renderer-id="0" transform="translate(28, 86)"></g><g id="g-root-tx_parseyam_958ofo65cow4-stroke" data-item-order="1000000000" data-item-id="tx_parseyam_958ofo65cow4" data-item-class="Label Stroke Indexed InsideFill InsideColorFill" data-item-index="2" data-renderer-id="0" transform="translate(190, 122)"></g><g id="g-root-tx_thesyste_1ha2ldg65e39p-stroke" data-item-order="1000000000" data-item-id="tx_thesyste_1ha2ldg65e39p" data-item-class="Label Stroke Indexed" data-item-index="6" data-renderer-id="0" transform="translate(856, 314)"></g><g id="g-root-tx_convertt_958ofo65cow6-stroke" data-item-order="1000000000" data-item-id="tx_convertt_958ofo65cow6" data-item-class="Label Stroke Indexed InsideFill InsideColorFill" data-item-index="3" data-renderer-id="0" transform="translate(364, 146)"></g><g id="g-root-tx_applycon_4pf6b865cpog-stroke" data-item-order="1000000000" data-item-id="tx_applycon_4pf6b865cpog" data-item-class="Label Stroke Indexed InsideFill InsideColorFill" data-item-index="4" data-renderer-id="0" transform="translate(520, 158)"></g><g id="g-root-tx_initiate_dl26k465co3v-stroke" data-item-order="1000000000" data-item-id="tx_initiate_dl26k465co3v" data-item-class="Label Stroke Indexed Indexed_1" data-item-index="1" data-renderer-id="0" transform="translate(16, 194)"></g><g id="g-root-tx_theopera_958ofo65cow5-stroke" data-item-order="1000000000" data-item-id="tx_theopera_958ofo65cow5" data-item-class="Label Stroke Indexed" data-item-index="2" data-renderer-id="0" transform="translate(184, 218)"></g><g id="g-root-tx_createpo_1uuw81g65cqa2-stroke" data-item-order="1000000000" data-item-id="tx_createpo_1uuw81g65cqa2" data-item-class="Label Stroke Indexed InsideFill InsideColorFill" data-item-index="5" data-renderer-id="0" transform="translate(700, 206)"></g><g id="g-root-tx_detectco_1q5plmc65e2h0-stroke" data-item-order="1000000000" data-item-id="tx_detectco_1q5plmc65e2h0" data-item-class="Label Stroke Indexed InsideFill InsideColorFill" data-item-index="6" data-renderer-id="0" transform="translate(856, 206)"></g><g id="g-root-tx_theparse_9lo6s65cpov-stroke" data-item-order="1000000000" data-item-id="tx_theparse_9lo6s65cpov" data-item-class="Label Stroke Indexed" data-item-index="3" data-renderer-id="0" transform="translate(352, 242)"></g><g id="g-root-tx_theconfi_1uuw81g65cqa1-stroke" data-item-order="1000000000" data-item-id="tx_theconfi_1uuw81g65cqa1" data-item-class="Label Stroke Indexed" data-item-index="4" data-renderer-id="0" transform="translate(520, 266)"></g><g id="g-root-tx_podsarec_1q5plmc65e2gz-stroke" data-item-order="1000000000" data-item-id="tx_podsarec_1q5plmc65e2gz" data-item-class="Label Stroke Indexed" data-item-index="5" data-renderer-id="0" transform="translate(688, 290)"></g><g id="g-root-tx_checlust_mg2ppw65cqgx-stroke" data-item-order="1000000000" data-item-id="tx_checlust_mg2ppw65cqgx" data-item-class="Label Stroke Title ColorFillBlack ColorStrokeBlack" data-item-index="none" data-renderer-id="0" transform="translate(346, 2)"></g></g></g></svg>