<?xml version="1.0" encoding="utf-8" standalone="yes"?>
<!DOCTYPE svg PUBLIC "-//W3C//DTD SVG 1.1//EN" "http://www.w3.org/Graphics/SVG/1.1/DTD/svg11.dtd">
<svg width="576" height="531" viewBox="0 0 576 531" style="fill:none;stroke:none;fill-rule:evenodd;clip-rule:evenodd;stroke-linecap:round;stroke-linejoin:round;stroke-miterlimit:1.5;" version="1.1" xmlns="http://www.w3.org/2000/svg" xmlns:xlink="http://www.w3.org/1999/xlink"><style id="fontImports">@import url("https://fonts.googleapis.com/css2?family=Roboto:wght@400;700&amp;display=block");</style><rect id="" x="0" y="0" width="576" height="530.453" style="fill: #ffffff;"></rect><g id="items" style="isolation: isolate"><g id="blend" style="mix-blend-mode:normal"><g id="g-root-0.cu_sy_1hcl3u8517bwm-fill" data-item-order="999891780" data-item-id="0.cu_sy_1hcl3u8517bwm" data-item-class="Part Indexed_0 Fill Stroke ColorFillGray ColorStrokeGray" data-item-index="0" data-renderer-id="0" transform="translate(102, 200)"></g><g id="g-root-0.cu_sy_1hcl3u8517bwm-fill" data-item-order="999891780" data-item-id="0.cu_sy_1hcl3u8517bwm" data-item-class="Part Indexed_0 Fill Stroke ColorFillGray ColorStrokeGray" data-item-index="0" data-renderer-id="0" transform="translate(102, 200)"></g><g id="g-root-1.cu_sy_18hkkog5179jj-fill" data-item-order="999891782" data-item-id="1.cu_sy_18hkkog5179jj" data-item-class="Part Indexed Indexed_1 Fill Stroke" data-item-index="1" data-renderer-id="0" transform="translate(236.97705078125, 313.28515625)"></g><g id="g-root-1.cu_sy_18hkkog5179jj-fill" data-item-order="999891782" data-item-id="1.cu_sy_18hkkog5179jj" data-item-class="Part Indexed Indexed_1 Fill Stroke" data-item-index="1" data-renderer-id="0" transform="translate(236.97705078125, 313.28515625)"></g><g id="g-root-tx_howtocon_qp1m0g5179qf-fill" data-item-order="1000000000" data-item-id="tx_howtocon_qp1m0g5179qf" data-item-class="Label Stroke Title ColorFillBlack ColorStrokeBlack" data-item-index="none" data-renderer-id="0" transform="translate(32, 2)"><g id="tx_howtocon_qp1m0g5179qf-fill" stroke="none" fill="#484848"><g><text style="font: bold 20px Roboto, sans-serif; white-space: pre;" font-weight="bold" font-size="20" font-family="Roboto, sans-serif"><tspan x="16.73" y="33.5" dominant-baseline="ideographic">How to configure storage settings for Dev Spaces?</tspan></text></g></g></g><g id="g-root-tx_howtocon_qp1m0g5179qf-fill" data-item-order="1000000000" data-item-id="tx_howtocon_qp1m0g5179qf" data-item-class="Label Stroke Title ColorFillBlack ColorStrokeBlack" data-item-index="none" data-renderer-id="0" transform="translate(32, 2)"><g id="tx_howtocon_qp1m0g5179qf-fill" stroke="none" fill="#484848"><g><text style="font: bold 20px Roboto, sans-serif; white-space: pre;" font-weight="bold" font-size="20" font-family="Roboto, sans-serif"><tspan x="16.73" y="33.5" dominant-baseline="ideographic">How to configure storage settings for Dev Spaces?</tspan></text></g></g></g><g id="g-root-tx_perworks_2r2cw5179qj-fill" data-item-order="1000000000" data-item-id="tx_perworks_2r2cw5179qj" data-item-class="Label Stroke Indexed ColorFillBlack ColorStrokeBlack" data-item-index="2" data-renderer-id="0" transform="translate(206, 74)"><g id="tx_perworks_2r2cw5179qj-fill" stroke="none" fill="#484848"><g><text style="font: bold 20px Roboto, sans-serif; white-space: pre;" font-weight="bold" font-size="20" font-family="Roboto, sans-serif"><tspan x="14.7" y="33.5" dominant-baseline="ideographic">per-workspace</tspan></text></g></g></g><g id="g-root-tx_perworks_2r2cw5179qj-fill" data-item-order="1000000000" data-item-id="tx_perworks_2r2cw5179qj" data-item-class="Label Stroke Indexed ColorFillBlack ColorStrokeBlack" data-item-index="2" data-renderer-id="0" transform="translate(206, 74)"><g id="tx_perworks_2r2cw5179qj-fill" stroke="none" fill="#484848"><g><text style="font: bold 20px Roboto, sans-serif; white-space: pre;" font-weight="bold" font-size="20" font-family="Roboto, sans-serif"><tspan x="14.7" y="33.5" dominant-baseline="ideographic">per-workspace</tspan></text></g></g></g><g id="g-root-tx_peruser_1lselyo517b4d-fill" data-item-order="1000000000" data-item-id="tx_peruser_1lselyo517b4d" data-item-class="Label Stroke Indexed Indexed_1 ColorFillBlack ColorStrokeBlack" data-item-index="1" data-renderer-id="0" transform="translate(44, 98)"><g id="tx_peruser_1lselyo517b4d-fill" stroke="none" fill="#484848"><g><text style="font: bold 20px Roboto, sans-serif; white-space: pre;" font-weight="bold" font-size="20" font-family="Roboto, sans-serif"><tspan x="13.65" y="33.5" dominant-baseline="ideographic">per-user</tspan></text></g></g></g><g id="g-root-tx_peruser_1lselyo517b4d-fill" data-item-order="1000000000" data-item-id="tx_peruser_1lselyo517b4d" data-item-class="Label Stroke Indexed Indexed_1 ColorFillBlack ColorStrokeBlack" data-item-index="1" data-renderer-id="0" transform="translate(44, 98)"><g id="tx_peruser_1lselyo517b4d-fill" stroke="none" fill="#484848"><g><text style="font: bold 20px Roboto, sans-serif; white-space: pre;" font-weight="bold" font-size="20" font-family="Roboto, sans-serif"><tspan x="13.65" y="33.5" dominant-baseline="ideographic">per-user</tspan></text></g></g></g><g id="g-root-tx_separate_8xrlio517c3m-fill" data-item-order="1000000000" data-item-id="tx_separate_8xrlio517c3m" data-item-class="Label Stroke Indexed ColorFillBlack ColorStrokeBlack" data-item-index="2" data-renderer-id="0" transform="translate(188, 110)"><g id="tx_separate_8xrlio517c3m-fill" stroke="none" fill="#484848"><g><text style="font: 15px Roboto, sans-serif; white-space: pre;" font-weight="15px" font-size="Roboto," font-family="sans-serif"><tspan x="24.75" y="30.5" dominant-baseline="ideographic">Separate 5GB PV/PVC </tspan><tspan x="17.01" y="48.5" dominant-baseline="ideographic">for each workspace, true </tspan><tspan x="41.43" y="66.5" dominant-baseline="ideographic">storage isolation.</tspan></text></g></g></g><g id="g-root-tx_separate_8xrlio517c3m-fill" data-item-order="1000000000" data-item-id="tx_separate_8xrlio517c3m" data-item-class="Label Stroke Indexed ColorFillBlack ColorStrokeBlack" data-item-index="2" data-renderer-id="0" transform="translate(188, 110)"><g id="tx_separate_8xrlio517c3m-fill" stroke="none" fill="#484848"><g><text style="font: 15px Roboto, sans-serif; white-space: pre;" font-weight="15px" font-size="Roboto," font-family="sans-serif"><tspan x="24.75" y="30.5" dominant-baseline="ideographic">Separate 5GB PV/PVC </tspan><tspan x="17.01" y="48.5" dominant-baseline="ideographic">for each workspace, true </tspan><tspan x="41.43" y="66.5" dominant-baseline="ideographic">storage isolation.</tspan></text></g></g></g><g id="g-root-tx_ephemera_ddl3n4517bbd-fill" data-item-order="1000000000" data-item-id="tx_ephemera_ddl3n4517bbd" data-item-class="Label Stroke Indexed ColorFillBlack ColorStrokeBlack" data-item-index="3" data-renderer-id="0" transform="translate(416, 98)"><g id="tx_ephemera_ddl3n4517bbd-fill" stroke="none" fill="#484848"><g><text style="font: bold 20px Roboto, sans-serif; white-space: pre;" font-weight="bold" font-size="20" font-family="Roboto, sans-serif"><tspan x="16.39" y="33.5" dominant-baseline="ideographic">ephemeral</tspan></text></g></g></g><g id="g-root-tx_ephemera_ddl3n4517bbd-fill" data-item-order="1000000000" data-item-id="tx_ephemera_ddl3n4517bbd" data-item-class="Label Stroke Indexed ColorFillBlack ColorStrokeBlack" data-item-index="3" data-renderer-id="0" transform="translate(416, 98)"><g id="tx_ephemera_ddl3n4517bbd-fill" stroke="none" fill="#484848"><g><text style="font: bold 20px Roboto, sans-serif; white-space: pre;" font-weight="bold" font-size="20" font-family="Roboto, sans-serif"><tspan x="16.39" y="33.5" dominant-baseline="ideographic">ephemeral</tspan></text></g></g></g><g id="g-root-tx_singlepv_1uo1m7k517abo-fill" data-item-order="1000000000" data-item-id="tx_singlepv_1uo1m7k517abo" data-item-class="Label Stroke Indexed Indexed_1 ColorFillBlack ColorStrokeBlack" data-item-index="1" data-renderer-id="0" transform="translate(2, 134)"><g id="tx_singlepv_1uo1m7k517abo-fill" stroke="none" fill="#484848"><g><text style="font: 15px Roboto, sans-serif; white-space: pre;" font-weight="15px" font-size="Roboto," font-family="sans-serif"><tspan x="14.15" y="30.5" dominant-baseline="ideographic">Single PV/PVC of 10GB </tspan><tspan x="44.26" y="48.5" dominant-baseline="ideographic">shared among </tspan><tspan x="49.99" y="66.5" dominant-baseline="ideographic">workspaces.</tspan></text></g></g></g><g id="g-root-tx_singlepv_1uo1m7k517abo-fill" data-item-order="1000000000" data-item-id="tx_singlepv_1uo1m7k517abo" data-item-class="Label Stroke Indexed Indexed_1 ColorFillBlack ColorStrokeBlack" data-item-index="1" data-renderer-id="0" transform="translate(2, 134)"><g id="tx_singlepv_1uo1m7k517abo-fill" stroke="none" fill="#484848"><g><text style="font: 15px Roboto, sans-serif; white-space: pre;" font-weight="15px" font-size="Roboto," font-family="sans-serif"><tspan x="14.15" y="30.5" dominant-baseline="ideographic">Single PV/PVC of 10GB </tspan><tspan x="44.26" y="48.5" dominant-baseline="ideographic">shared among </tspan><tspan x="49.99" y="66.5" dominant-baseline="ideographic">workspaces.</tspan></text></g></g></g><g id="g-root-tx_nostorag_m983w0517aio-fill" data-item-order="1000000000" data-item-id="tx_nostorag_m983w0517aio" data-item-class="Label Stroke Indexed ColorFillBlack ColorStrokeBlack" data-item-index="3" data-renderer-id="0" transform="translate(386, 134)"><g id="tx_nostorag_m983w0517aio-fill" stroke="none" fill="#484848"><g><text style="font: 15px Roboto, sans-serif; white-space: pre;" font-weight="15px" font-size="Roboto," font-family="sans-serif"><tspan x="12.64" y="30.5" dominant-baseline="ideographic">No storage allocated, all </tspan><tspan x="42.03" y="48.5" dominant-baseline="ideographic">state lost when </tspan><tspan x="18.03" y="66.5" dominant-baseline="ideographic">workspace is stopped.</tspan></text></g></g></g><g id="g-root-tx_nostorag_m983w0517aio-fill" data-item-order="1000000000" data-item-id="tx_nostorag_m983w0517aio" data-item-class="Label Stroke Indexed ColorFillBlack ColorStrokeBlack" data-item-index="3" data-renderer-id="0" transform="translate(386, 134)"><g id="tx_nostorag_m983w0517aio-fill" stroke="none" fill="#484848"><g><text style="font: 15px Roboto, sans-serif; white-space: pre;" font-weight="15px" font-size="Roboto," font-family="sans-serif"><tspan x="12.64" y="30.5" dominant-baseline="ideographic">No storage allocated, all </tspan><tspan x="42.03" y="48.5" dominant-baseline="ideographic">state lost when </tspan><tspan x="18.03" y="66.5" dominant-baseline="ideographic">workspace is stopped.</tspan></text></g></g></g><g id="g-root-0.cu_sy_1hcl3u8517bwm-stroke" data-item-order="999891780" data-item-id="0.cu_sy_1hcl3u8517bwm" data-item-class="Part Indexed_0 Fill Stroke ColorFillGray ColorStrokeGray" data-item-index="0" data-renderer-id="0" transform="translate(102, 200)"><g id="0.cu_sy_1hcl3u8517bwm-stroke" fill="none" stroke-linecap="round" stroke-linejoin="round" stroke-miterlimit="4" stroke="#888888" stroke-width="2"><g><path d="M 168.8778 236.7714C 168.8778 237.119 168.8805 237.5302 168.8859 238C 168.9255 241.4884 169.1112 248.2023 169.4282 256C 169.5073 257.9437 169.5944 259.9548 169.6896 262C 169.9461 267.5141 170.2603 273.2766 170.6279 278.6375C 170.659 279.0922 170.6907 279.5465 170.7228 280C 170.8662 282.0246 171.0186 284.0342 171.1754 286C 171.7327 292.99 172.3452 299.4248 172.8057 304L 129 304C 129 245.5419 58.3333 170.7336 10 155.4572L 10 37L 90 37L 113.6096 43L 113.6096 64L 133.4149 70.5L 133.4149 88L 138 88L 138 70.5L 138 64L 138 43L 138 37L 138 16L 138 10L 234 10L 234 16L 234 37L 234 43L 234 64L 234 70.5L 234 88L 238.5851 88L 238.5851 70.5L 258.3904 64L 258.3904 43L 282 37L 362 37L 362 155.4572C 313.6667 170.7336 243 245.5419 243 304L 200.4662 304C 200.9267 299.4248 201.5393 292.99 202.0966 286C 202.2533 284.0342 202.4057 282.0246 202.5491 280C 202.5813 279.5465 202.6129 279.0922 202.6441 278.6375C 203.0116 273.2766 203.3258 267.5141 203.5824 262C 203.6775 259.9548 203.7647 257.9437 203.8437 256C 204.1608 248.2023 204.3464 241.4884 204.3861 238C 204.3914 237.5302 204.3941 237.119 204.3941 236.7714M 168.8778 236.7714C 168.8778 235.0765 168.8778 233.5059 168.8778 232M 168.8778 236.7714L 168.8778 232M 168.8778 222.6827L 168.9673 219.0298L 169.1639 212.2429C 169.2069 210.9714 169.2592 209.5413 169.3235 208C 169.5455 202.6757 169.9103 196.0244 170.5256 190C 170.7323 187.9765 170.9673 186.0237 171.2346 184.2156C 169.5407 185.1847 165.4659 187.5929 161.9251 190C 158.821 192.1102 156.1273 194.2195 155.8079 195.3576C 155.4843 197.1482 157.8132 200.3383 160.2104 203.6219C 161.291 205.1021 162.3855 206.6013 163.2572 208C 163.4244 208.2683 163.5835 208.5329 163.7326 208.7929C 164.1798 209.2833 166.0695 210.3923 167.5157 211.2411C 168.0705 211.5667 168.7486 211.9998 169.0664 212.1992L 168.8778 219.1296C 168.4999 219.5388 166.9981 221.0436 165.7561 220.5601C 165.1243 220.3141 164.0247 219.2736 162.9929 218.1872C 161.6849 216.8101 160.4856 214.3592 160.4856 214.3592C 160.4856 214.3592 160.2689 214.2361 159.8882 214C 158.5836 213.1908 155.3532 211.0544 152.3232 208C 148.7591 204.4072 145.4724 199.5441 145.9235 194.0766C 146.0334 192.7441 146.4556 191.3805 147.1277 190C 148.0912 188.0209 149.5682 186.0069 151.3749 184C 156.1728 178.6702 163.2951 173.3896 169.2969 168.9398C 170.5406 168.0177 171.7363 167.1312 172.8531 166.2874C 172.9871 166.1862 173.1225 166.0906 173.2592 166C 174.1238 165.4269 175.0424 165.0487 176.0038 164.6529C 177.1087 164.198 178.2701 163.7198 179.4712 162.8957C 179.9536 162.5302 180.145 162.0461 180.3267 161.5868C 180.5401 161.0472 180.7399 160.5419 181.3819 160.3037C 181.7032 160.1844 182.1135 160.0711 182.5697 160L 182.5697 154.8891C 179.6198 153.5729 177.4598 150.8175 176.3634 147.3199C 176.2276 147.5458 176.0462 147.7257 175.8203 147.8445C 174.8219 148.3696 173.3319 147.5012 172.4924 145.905C 171.6529 144.3087 171.7818 142.589 172.7803 142.0639C 172.8264 142.0396 172.8735 142.0184 172.9216 142C 173.2414 141.8778 173.6024 141.8844 173.9719 142C 173.252 140.0196 172.8533 137.7212 172.8533 136.0978M 168.8778 222.6827C 168.8779 225.8776 168.8778 228.7917 168.8778 232M 168.8778 222.6827L 168.8778 232M 204.3941 236.7714C 204.3942 235.0674 204.3942 233.5009 204.3942 232M 204.3941 236.7714L 204.3942 232M 204.3941 222.6827C 204.3941 222.6827 204.3352 219.9707 204.1975 215.8959C 204.1771 215.2924 204.155 214.659 204.131 214C 204.0645 212.1662 203.984 210.1348 203.8883 208C 203.6465 202.6086 203.3073 196.5582 202.848 191.369C 202.8077 190.9137 202.7722 190.4571 202.743 190C 202.6146 187.9891 202.6083 185.9683 202.8529 184C 203.1132 181.9057 203.6576 179.8709 204.6414 177.9707C 206.2417 174.8796 208.6113 171.2785 211.9214 168.0226C 212.6153 167.3399 213.2794 166.6661 213.9117 166C 215.8727 163.9342 217.5277 161.9436 218.8197 160C 222.9225 153.8281 223.3644 148.1298 218.3189 142C 216.7165 140.0532 214.5605 138.0629 211.7926 136C 211.0669 135.4591 210.299 134.9132 209.4881 134.3619C 209.0478 134.0625 208.6248 133.7399 208.2086 133.4224C 207.2038 132.6559 206.1387 131.9551 205.0633 131.6484C 202.6384 130.4717 201.1352 125.3313 199.1016 125.3309C 197.8747 125.3307 196.2899 125.2738 194.9526 125.6076C 191.3343 123.3965 186.2854 123.2701 180.9482 126.4679C 175.1221 126.4679 172.8844 131.3447 172.8536 136C 172.8534 136.0209 172.8533 136.0418 172.8533 136.0627M 204.3941 222.6827C 204.3941 225.9478 204.3942 228.8273 204.3942 232M 204.3941 222.6827L 204.3942 232M 207.1427 139.4727C 207.5666 139.8184 206.7485 139.1354 207.1427 139.4727ZM 207.1427 139.4727C 206.7992 139.1927 206.2444 138.8577 205.6288 138.4861C 204.4155 137.7535 202.9661 136.8785 202.4327 136C 202.3569 135.8752 202.33 135.7356 202.2945 135.611C 201.7368 135.4103 201.0271 134.8346 200.2786 134.082C 200.366 134.7031 200.4132 135.3433 200.4174 136C 200.4176 136.0326 200.4177 136.0652 200.4177 136.0978C 200.4177 137.7194 200.0198 140.0146 199.3015 141.9935C 199.6639 141.884 200.0177 141.8801 200.3316 142C 200.3797 142.0184 200.4268 142.0396 200.4729 142.0639C 201.4713 142.589 201.6002 144.3087 200.7607 145.905C 199.9212 147.5012 198.4313 148.3696 197.4328 147.8445C 197.2135 147.7292 197.0361 147.5562 196.9018 147.3396C 195.8033 150.8283 193.6455 153.5761 190.7005 154.8896L 190.7005 160C 191.1569 160.0711 191.5674 160.1844 191.8888 160.3037C 192.5308 160.5419 192.7307 161.0472 192.9442 161.5868C 193.1259 162.0461 193.3175 162.5303 193.7999 162.8957C 194.9495 163.6845 195.4226 163.2787 196.1694 162.6379C 196.989 161.9347 198.1383 160.9487 200.8735 160.9487C 201.6896 160.6317 202.4658 160.3156 203.2029 160C 215.9984 154.5208 216.9957 149.1825 209.8818 142C 209.072 141.1824 208.1572 140.341 207.1427 139.4727ZM 172.8533 136.0978L 172.8533 136.0627M 172.8533 136.0978C 172.8533 136.0861 172.8533 136.0744 172.8533 136.0627M 185.171 236.7714L 188.101 236.7714C 188.101 236.7714 188.1337 237.2065 188.1915 238C 188.3921 240.7532 188.8948 247.821 189.381 256C 189.4969 257.9513 189.612 259.9658 189.7218 262C 190.03 267.7111 190.2966 273.5778 190.426 278.6375C 190.4376 279.0924 190.4486 279.5467 190.459 280C 190.5055 282.0292 190.5397 284.0383 190.5641 286C 190.6512 293.0246 190.6112 299.4415 190.5524 304L 182.7196 304C 182.6607 299.4415 182.6208 293.0246 182.7079 286C 182.7322 284.0383 182.7664 282.0292 182.8129 280C 182.8233 279.5467 182.8343 279.0924 182.8459 278.6375C 182.9753 273.5778 183.242 267.7111 183.5502 262C 183.66 259.9658 183.775 257.9513 183.891 256C 184.3772 247.821 184.8799 240.7532 185.0805 238C 185.1383 237.2065 185.171 236.7714 185.171 236.7714ZM 129 304L 129 286L 126.2459 280L 126.2459 262L 122 256L 122 238L 116.389 232L 116.389 214L 109.5228 208L 109.5228 190L 101.4098 184L 101.4098 166L 92 160L 92 142L 81.1427 136L 81.1427 118L 68.5221 112L 68.5221 94L 53.4149 88L 53.4149 70.5L 33.6096 64L 33.6096 43L 10 37M 243 304L 243 286L 245.7541 280L 245.7541 262L 250 256L 250 238L 255.6111 232L 255.6111 214L 262.4772 208L 262.4772 190L 270.5902 184L 270.5902 166L 280 160L 280 142L 290.8574 136L 290.8574 118L 303.4779 112L 303.4779 94L 318.5851 88L 318.5851 70.5L 338.3904 64L 338.3904 43L 362 37M 129 304L 172.8057 304M 113.6096 43L 33.6096 43M 113.6096 64L 33.6096 64M 133.4149 70.5L 53.4149 70.5M 90 37L 10 37M 122 256L 169.4282 256M 116.389 232L 168.8778 232M 109.5228 208L 152.3232 208M 101.4098 184L 151.3749 184M 92 160L 182.5697 160M 81.1427 136L 172.8536 136M 68.5221 112L 303.4779 112M 138 64L 234 64M 138 43L 234 43M 138 16L 234 16M 138 10L 234 10M 53.4149 88L 133.4149 88L 138 88L 234 88L 238.5851 88L 318.5851 88M 68.5221 94L 303.4779 94M 81.1427 118L 290.8574 118M 92 142L 172.9216 142M 101.4098 166L 173.2592 166M 109.5228 190L 147.1277 190M 116.389 214L 159.8882 214M 122 238L 168.8859 238M 126.2459 262L 169.6896 262M 126.2459 280L 170.7228 280M 129 286L 171.1754 286M 138 70.5L 234 70.5M 138 37L 234 37M 243 304L 200.4662 304M 258.3904 43L 338.3904 43M 258.3904 64L 338.3904 64M 238.5851 70.5L 318.5851 70.5M 282 37L 362 37M 250 256L 203.8437 256M 255.6111 232L 204.3942 232M 262.4772 208L 203.8883 208M 270.5902 184L 202.8529 184M 280 160L 218.8197 160M 290.8574 136L 211.7926 136M 280 142L 218.3189 142M 270.5902 166L 213.9117 166M 262.4772 190L 202.743 190M 255.6111 214L 204.131 214M 250 238L 204.3861 238M 245.7541 262L 203.5824 262M 245.7541 280L 202.5491 280M 243 286L 202.0966 286M 190.7005 160L 203.2029 160M 182.7196 304L 190.5524 304M 182.7079 286L 190.5641 286M 190.459 280L 182.8129 280M 189.7218 262L 183.5502 262M 183.891 256L 189.381 256M 188.1915 238L 185.0805 238M 169.3235 208L 163.2572 208M 161.9251 190L 170.5256 190M 200.4174 136L 202.4327 136M 209.8818 142L 200.3316 142"></path></g></g></g><g id="g-root-0.cu_sy_1hcl3u8517bwm-stroke" data-item-order="999891780" data-item-id="0.cu_sy_1hcl3u8517bwm" data-item-class="Part Indexed_0 Fill Stroke ColorFillGray ColorStrokeGray" data-item-index="0" data-renderer-id="0" transform="translate(102, 200)"><g id="0.cu_sy_1hcl3u8517bwm-stroke" fill="none" stroke-linecap="round" stroke-linejoin="round" stroke-miterlimit="4" stroke="#888888" stroke-width="2"><g><path d="M 168.8778 236.7714C 168.8778 237.119 168.8805 237.5302 168.8859 238C 168.9255 241.4884 169.1112 248.2023 169.4282 256C 169.5073 257.9437 169.5944 259.9548 169.6896 262C 169.9461 267.5141 170.2603 273.2766 170.6279 278.6375C 170.659 279.0922 170.6907 279.5465 170.7228 280C 170.8662 282.0246 171.0186 284.0342 171.1754 286C 171.7327 292.99 172.3452 299.4248 172.8057 304L 129 304C 129 245.5419 58.3333 170.7336 10 155.4572L 10 37L 90 37L 113.6096 43L 113.6096 64L 133.4149 70.5L 133.4149 88L 138 88L 138 70.5L 138 64L 138 43L 138 37L 138 16L 138 10L 234 10L 234 16L 234 37L 234 43L 234 64L 234 70.5L 234 88L 238.5851 88L 238.5851 70.5L 258.3904 64L 258.3904 43L 282 37L 362 37L 362 155.4572C 313.6667 170.7336 243 245.5419 243 304L 200.4662 304C 200.9267 299.4248 201.5393 292.99 202.0966 286C 202.2533 284.0342 202.4057 282.0246 202.5491 280C 202.5813 279.5465 202.6129 279.0922 202.6441 278.6375C 203.0116 273.2766 203.3258 267.5141 203.5824 262C 203.6775 259.9548 203.7647 257.9437 203.8437 256C 204.1608 248.2023 204.3464 241.4884 204.3861 238C 204.3914 237.5302 204.3941 237.119 204.3941 236.7714M 168.8778 236.7714C 168.8778 235.0765 168.8778 233.5059 168.8778 232M 168.8778 236.7714L 168.8778 232M 168.8778 222.6827L 168.9673 219.0298L 169.1639 212.2429C 169.2069 210.9714 169.2592 209.5413 169.3235 208C 169.5455 202.6757 169.9103 196.0244 170.5256 190C 170.7323 187.9765 170.9673 186.0237 171.2346 184.2156C 169.5407 185.1847 165.4659 187.5929 161.9251 190C 158.821 192.1102 156.1273 194.2195 155.8079 195.3576C 155.4843 197.1482 157.8132 200.3383 160.2104 203.6219C 161.291 205.1021 162.3855 206.6013 163.2572 208C 163.4244 208.2683 163.5835 208.5329 163.7326 208.7929C 164.1798 209.2833 166.0695 210.3923 167.5157 211.2411C 168.0705 211.5667 168.7486 211.9998 169.0664 212.1992L 168.8778 219.1296C 168.4999 219.5388 166.9981 221.0436 165.7561 220.5601C 165.1243 220.3141 164.0247 219.2736 162.9929 218.1872C 161.6849 216.8101 160.4856 214.3592 160.4856 214.3592C 160.4856 214.3592 160.2689 214.2361 159.8882 214C 158.5836 213.1908 155.3532 211.0544 152.3232 208C 148.7591 204.4072 145.4724 199.5441 145.9235 194.0766C 146.0334 192.7441 146.4556 191.3805 147.1277 190C 148.0912 188.0209 149.5682 186.0069 151.3749 184C 156.1728 178.6702 163.2951 173.3896 169.2969 168.9398C 170.5406 168.0177 171.7363 167.1312 172.8531 166.2874C 172.9871 166.1862 173.1225 166.0906 173.2592 166C 174.1238 165.4269 175.0424 165.0487 176.0038 164.6529C 177.1087 164.198 178.2701 163.7198 179.4712 162.8957C 179.9536 162.5302 180.145 162.0461 180.3267 161.5868C 180.5401 161.0472 180.7399 160.5419 181.3819 160.3037C 181.7032 160.1844 182.1135 160.0711 182.5697 160L 182.5697 154.8891C 179.6198 153.5729 177.4598 150.8175 176.3634 147.3199C 176.2276 147.5458 176.0462 147.7257 175.8203 147.8445C 174.8219 148.3696 173.3319 147.5012 172.4924 145.905C 171.6529 144.3087 171.7818 142.589 172.7803 142.0639C 172.8264 142.0396 172.8735 142.0184 172.9216 142C 173.2414 141.8778 173.6024 141.8844 173.9719 142C 173.252 140.0196 172.8533 137.7212 172.8533 136.0978M 168.8778 222.6827C 168.8779 225.8776 168.8778 228.7917 168.8778 232M 168.8778 222.6827L 168.8778 232M 204.3941 236.7714C 204.3942 235.0674 204.3942 233.5009 204.3942 232M 204.3941 236.7714L 204.3942 232M 204.3941 222.6827C 204.3941 222.6827 204.3352 219.9707 204.1975 215.8959C 204.1771 215.2924 204.155 214.659 204.131 214C 204.0645 212.1662 203.984 210.1348 203.8883 208C 203.6465 202.6086 203.3073 196.5582 202.848 191.369C 202.8077 190.9137 202.7722 190.4571 202.743 190C 202.6146 187.9891 202.6083 185.9683 202.8529 184C 203.1132 181.9057 203.6576 179.8709 204.6414 177.9707C 206.2417 174.8796 208.6113 171.2785 211.9214 168.0226C 212.6153 167.3399 213.2794 166.6661 213.9117 166C 215.8727 163.9342 217.5277 161.9436 218.8197 160C 222.9225 153.8281 223.3644 148.1298 218.3189 142C 216.7165 140.0532 214.5605 138.0629 211.7926 136C 211.0669 135.4591 210.299 134.9132 209.4881 134.3619C 209.0478 134.0625 208.6248 133.7399 208.2086 133.4224C 207.2038 132.6559 206.1387 131.9551 205.0633 131.6484C 202.6384 130.4717 201.1352 125.3313 199.1016 125.3309C 197.8747 125.3307 196.2899 125.2738 194.9526 125.6076C 191.3343 123.3965 186.2854 123.2701 180.9482 126.4679C 175.1221 126.4679 172.8844 131.3447 172.8536 136C 172.8534 136.0209 172.8533 136.0418 172.8533 136.0627M 204.3941 222.6827C 204.3941 225.9478 204.3942 228.8273 204.3942 232M 204.3941 222.6827L 204.3942 232M 207.1427 139.4727C 207.5666 139.8184 206.7485 139.1354 207.1427 139.4727ZM 207.1427 139.4727C 206.7992 139.1927 206.2444 138.8577 205.6288 138.4861C 204.4155 137.7535 202.9661 136.8785 202.4327 136C 202.3569 135.8752 202.33 135.7356 202.2945 135.611C 201.7368 135.4103 201.0271 134.8346 200.2786 134.082C 200.366 134.7031 200.4132 135.3433 200.4174 136C 200.4176 136.0326 200.4177 136.0652 200.4177 136.0978C 200.4177 137.7194 200.0198 140.0146 199.3015 141.9935C 199.6639 141.884 200.0177 141.8801 200.3316 142C 200.3797 142.0184 200.4268 142.0396 200.4729 142.0639C 201.4713 142.589 201.6002 144.3087 200.7607 145.905C 199.9212 147.5012 198.4313 148.3696 197.4328 147.8445C 197.2135 147.7292 197.0361 147.5562 196.9018 147.3396C 195.8033 150.8283 193.6455 153.5761 190.7005 154.8896L 190.7005 160C 191.1569 160.0711 191.5674 160.1844 191.8888 160.3037C 192.5308 160.5419 192.7307 161.0472 192.9442 161.5868C 193.1259 162.0461 193.3175 162.5303 193.7999 162.8957C 194.9495 163.6845 195.4226 163.2787 196.1694 162.6379C 196.989 161.9347 198.1383 160.9487 200.8735 160.9487C 201.6896 160.6317 202.4658 160.3156 203.2029 160C 215.9984 154.5208 216.9957 149.1825 209.8818 142C 209.072 141.1824 208.1572 140.341 207.1427 139.4727ZM 172.8533 136.0978L 172.8533 136.0627M 172.8533 136.0978C 172.8533 136.0861 172.8533 136.0744 172.8533 136.0627M 185.171 236.7714L 188.101 236.7714C 188.101 236.7714 188.1337 237.2065 188.1915 238C 188.3921 240.7532 188.8948 247.821 189.381 256C 189.4969 257.9513 189.612 259.9658 189.7218 262C 190.03 267.7111 190.2966 273.5778 190.426 278.6375C 190.4376 279.0924 190.4486 279.5467 190.459 280C 190.5055 282.0292 190.5397 284.0383 190.5641 286C 190.6512 293.0246 190.6112 299.4415 190.5524 304L 182.7196 304C 182.6607 299.4415 182.6208 293.0246 182.7079 286C 182.7322 284.0383 182.7664 282.0292 182.8129 280C 182.8233 279.5467 182.8343 279.0924 182.8459 278.6375C 182.9753 273.5778 183.242 267.7111 183.5502 262C 183.66 259.9658 183.775 257.9513 183.891 256C 184.3772 247.821 184.8799 240.7532 185.0805 238C 185.1383 237.2065 185.171 236.7714 185.171 236.7714ZM 129 304L 129 286L 126.2459 280L 126.2459 262L 122 256L 122 238L 116.389 232L 116.389 214L 109.5228 208L 109.5228 190L 101.4098 184L 101.4098 166L 92 160L 92 142L 81.1427 136L 81.1427 118L 68.5221 112L 68.5221 94L 53.4149 88L 53.4149 70.5L 33.6096 64L 33.6096 43L 10 37M 243 304L 243 286L 245.7541 280L 245.7541 262L 250 256L 250 238L 255.6111 232L 255.6111 214L 262.4772 208L 262.4772 190L 270.5902 184L 270.5902 166L 280 160L 280 142L 290.8574 136L 290.8574 118L 303.4779 112L 303.4779 94L 318.5851 88L 318.5851 70.5L 338.3904 64L 338.3904 43L 362 37M 129 304L 172.8057 304M 113.6096 43L 33.6096 43M 113.6096 64L 33.6096 64M 133.4149 70.5L 53.4149 70.5M 90 37L 10 37M 122 256L 169.4282 256M 116.389 232L 168.8778 232M 109.5228 208L 152.3232 208M 101.4098 184L 151.3749 184M 92 160L 182.5697 160M 81.1427 136L 172.8536 136M 68.5221 112L 303.4779 112M 138 64L 234 64M 138 43L 234 43M 138 16L 234 16M 138 10L 234 10M 53.4149 88L 133.4149 88L 138 88L 234 88L 238.5851 88L 318.5851 88M 68.5221 94L 303.4779 94M 81.1427 118L 290.8574 118M 92 142L 172.9216 142M 101.4098 166L 173.2592 166M 109.5228 190L 147.1277 190M 116.389 214L 159.8882 214M 122 238L 168.8859 238M 126.2459 262L 169.6896 262M 126.2459 280L 170.7228 280M 129 286L 171.1754 286M 138 70.5L 234 70.5M 138 37L 234 37M 243 304L 200.4662 304M 258.3904 43L 338.3904 43M 258.3904 64L 338.3904 64M 238.5851 70.5L 318.5851 70.5M 282 37L 362 37M 250 256L 203.8437 256M 255.6111 232L 204.3942 232M 262.4772 208L 203.8883 208M 270.5902 184L 202.8529 184M 280 160L 218.8197 160M 290.8574 136L 211.7926 136M 280 142L 218.3189 142M 270.5902 166L 213.9117 166M 262.4772 190L 202.743 190M 255.6111 214L 204.131 214M 250 238L 204.3861 238M 245.7541 262L 203.5824 262M 245.7541 280L 202.5491 280M 243 286L 202.0966 286M 190.7005 160L 203.2029 160M 182.7196 304L 190.5524 304M 182.7079 286L 190.5641 286M 190.459 280L 182.8129 280M 189.7218 262L 183.5502 262M 183.891 256L 189.381 256M 188.1915 238L 185.0805 238M 169.3235 208L 163.2572 208M 161.9251 190L 170.5256 190M 200.4174 136L 202.4327 136M 209.8818 142L 200.3316 142"></path></g></g></g><g id="g-root-1.cu_sy_18hkkog5179jj-stroke" data-item-order="999891782" data-item-id="1.cu_sy_18hkkog5179jj" data-item-class="Part Indexed Indexed_1 Fill Stroke" data-item-index="1" data-renderer-id="0" transform="translate(236.97705078125, 313.28515625)"><g id="1.cu_sy_18hkkog5179jj-stroke" fill="none" stroke-linecap="round" stroke-linejoin="round" stroke-miterlimit="4" stroke="#17b0e3" stroke-width="2"><g><path d="M 47.868885 197.605105L 47.868885 202.714405C 47.868885 202.714405 43.773985 203.985905 39.312285 202.714405C 36.580685 203.439505 33.274985 201.714405 33.274985 201.714405L 33.274985 200.605105C 33.274985 197.978105 35.809685 197.168105 37.577685 197.430505C 37.901285 197.478605 38.224485 197.543005 38.549585 197.578605C 38.468685 196.853905 36.748585 181.364405 35.650785 165.352305C 34.526385 148.951905 33.900885 128.792405 33.900785 123.486305C 33.900585 118.180305 33.990385 114.091505 33.990285 109.397005L 33.990285 105.744705C 33.990285 105.744705 32.211685 107.832805 30.778985 107.275005C 30.147185 107.029005 29.047685 105.988505 28.015785 104.902105C 26.707785 103.525005 25.508485 101.074105 25.508485 101.074105C 25.508485 101.074105 9.999985 92.263205 10.946385 80.791505C 11.632485 72.475505 24.481685 62.948805 34.319785 55.654705C 35.563585 54.732605 36.759185 53.846105 37.876085 53.002305C 38.857285 52.261005 39.913285 51.826205 41.026685 51.367805C 42.131585 50.912905 43.293085 50.434705 44.494085 49.610605C 44.976485 49.245105 45.167985 48.761005 45.349585 48.301705C 45.562985 47.762105 45.762785 47.256805 46.404785 47.018605C 46.726085 46.899305 47.136485 46.807205 47.592585 46.736105L 47.592585 41.604005C 44.642685 40.287805 42.482785 37.532405 41.386285 34.034805C 41.250585 34.260705 41.069185 34.440605 40.843285 34.559405C 39.844785 35.084505 38.354885 34.216105 37.515385 32.619905C 36.675885 31.023605 36.804785 29.303905 37.803185 28.778805C 38.155885 28.593305 38.569785 28.581705 38.994685 28.714505C 38.274885 26.734205 37.876185 24.436005 37.876185 22.812705C 37.876185 18.128205 40.104185 13.182805 45.971185 13.182805C 51.283285 10.000005 56.309785 10.110305 59.924485 12.291505C 58.640185 12.535205 57.712485 13.379605 57.377285 14.329205C 56.878285 15.743905 58.068085 17.273105 59.089785 17.133905C 59.536585 17.073005 59.517785 16.157705 59.777085 15.624205C 59.960385 15.247205 60.314585 15.188405 60.826585 15.188405C 62.120585 17.257805 63.685285 19.119105 65.318585 20.922605C 65.661385 23.540405 65.220585 26.239405 64.324385 28.708405C 66.635685 28.010005 66.473985 31.307205 65.783585 32.619905C 65.180785 33.766105 62.999785 35.788005 61.924685 34.054505C 60.826185 37.543205 58.668385 40.291105 55.723385 41.604605L 55.723385 46.736105C 56.179785 46.807205 56.590285 46.899305 56.911585 47.018605C 58.100085 47.459605 57.773585 48.815905 58.822785 49.610605C 61.234085 51.265305 60.668885 47.663605 65.896385 47.663605C 82.492085 41.218305 82.606085 35.123305 72.165585 26.187705C 71.048685 25.277105 67.699085 23.786605 67.286985 22.340705C 66.729185 22.139905 66.049985 21.549505 65.301485 20.796905C 63.548085 19.033805 61.581885 16.299405 60.855885 15.138305C 60.343785 15.138305 59.903285 15.237505 59.719985 15.614405C 59.460585 16.148005 59.535785 17.021105 59.088985 17.082005C 58.067285 17.221205 56.966285 15.734405 57.465385 14.319805C 57.867485 13.180305 58.830685 12.608305 59.975585 12.322505C 61.312785 11.988705 62.897585 12.045605 64.124485 12.045805C 66.158085 12.046205 67.661385 17.186605 70.086285 18.363305C 71.161685 18.670005 72.226685 19.370805 73.231585 20.137305C 73.647785 20.454805 74.070685 20.777405 74.510985 21.076805C 92.208785 33.109705 89.365785 42.518905 76.944285 54.737505C 73.634285 57.993405 71.264685 61.594505 69.664285 64.685605C 67.545785 68.777705 67.464785 73.493805 67.870985 78.083905C 68.577385 86.066205 68.999885 96.086305 69.220385 102.610805C 69.358185 106.685705 69.417085 109.397605 69.417085 109.397605L 69.417085 114.044705L 69.417085 123.486305C 69.416885 128.792405 68.791385 148.951905 67.667085 165.352305C 66.573885 181.298205 64.863385 196.725905 64.769385 197.568905C 65.151285 197.520605 65.530785 197.435005 65.912085 197.382805C 67.641985 197.145805 70.096185 198.047405 70.096185 200.605105L 70.096185 201.714405C 70.096185 201.714405 66.992985 203.348505 64.261385 202.714405C 59.890785 204.168005 55.448985 202.714405 55.448985 202.714405L 55.448985 197.605105C 55.448985 197.605105 55.873285 181.945605 55.448985 165.352305C 55.024585 148.759105 53.123885 123.486305 53.123885 123.486305L 50.193985 123.486305C 50.193985 123.486305 48.293185 148.759105 47.868885 165.352305C 47.444585 181.945605 47.868885 197.605105 47.868885 197.605105ZM 34.186885 98.957805C 34.428185 91.818605 34.963985 79.679805 36.257485 70.930505C 33.078685 72.749205 21.514585 79.636205 20.830885 82.072505C 20.507285 83.863105 22.836085 87.053205 25.233385 90.336805C 26.521285 92.101005 27.828885 93.892105 28.755585 95.507805C 29.202785 95.998205 31.092485 97.107205 32.538685 97.956105C 33.308585 98.407905 33.952785 98.786005 34.186885 98.957805ZM 69.417085 123.486305C 69.417185 119.963105 69.417185 117.027705 69.417085 114.044705C 69.417085 112.535305 69.417085 111.013705 69.417085 109.397605M 72.165585 26.187705C 72.589485 26.533305 71.771385 25.850305 72.165585 26.187705ZM 47.869189 197.604927L 38.552789 197.604927M 42.047589 123.486127C 47.058789 124.756927 50.194189 123.486127 50.194189 123.486127M 55.449189 197.604927L 64.765589 197.604927M 61.270789 123.486127C 56.259589 124.756927 53.124189 123.486127 53.124189 123.486127M 33.900989 109.397427L 69.417289 109.397427L 33.990489 109.396827M 44.494389 49.610327L 58.823089 49.610327M 55.723689 46.735927C 54.403389 46.530227 52.699189 46.500827 51.658089 46.500827C 50.616989 46.500827 48.912989 46.530227 47.592889 46.735927M 34.187189 98.957527C 34.049389 103.032827 33.990489 105.744527 33.990489 105.744527M 28.755789 95.507627L 25.508789 101.073927M 36.257789 70.930327L 36.661989 68.196427M 70.086589 18.363127C 70.086589 18.363127 68.044289 21.344827 67.317689 22.325727M 64.324689 28.708127C 63.813389 30.116527 63.139889 31.364627 62.331889 32.095827C 61.307189 35.286727 59.898389 37.965027 58.381489 38.560527C 56.392789 39.341127 54.099889 39.760727 51.658689 39.760727C 49.217489 39.760727 46.924589 39.341127 44.935889 38.560527C 43.418989 37.965027 42.104689 35.310127 40.985489 32.095827C 40.178789 31.365727 39.505989 30.120127 38.994989 28.714327M 65.301889 20.796727C 63.548489 19.033627 61.581889 16.299427 60.855889 15.138327C 60.343889 15.138327 59.903289 15.237527 59.719989 15.614427C 59.460589 16.147927 59.535789 17.021027 59.088989 17.081927C 58.067289 17.221227 56.966289 15.734427 57.465389 14.319727C 57.867489 13.180327 58.830989 12.608127 59.975789 12.322327"></path></g></g></g><g id="g-root-1.cu_sy_18hkkog5179jj-stroke" data-item-order="999891782" data-item-id="1.cu_sy_18hkkog5179jj" data-item-class="Part Indexed Indexed_1 Fill Stroke" data-item-index="1" data-renderer-id="0" transform="translate(236.97705078125, 313.28515625)"><g id="1.cu_sy_18hkkog5179jj-stroke" fill="none" stroke-linecap="round" stroke-linejoin="round" stroke-miterlimit="4" stroke="#17b0e3" stroke-width="2"><g><path d="M 47.868885 197.605105L 47.868885 202.714405C 47.868885 202.714405 43.773985 203.985905 39.312285 202.714405C 36.580685 203.439505 33.274985 201.714405 33.274985 201.714405L 33.274985 200.605105C 33.274985 197.978105 35.809685 197.168105 37.577685 197.430505C 37.901285 197.478605 38.224485 197.543005 38.549585 197.578605C 38.468685 196.853905 36.748585 181.364405 35.650785 165.352305C 34.526385 148.951905 33.900885 128.792405 33.900785 123.486305C 33.900585 118.180305 33.990385 114.091505 33.990285 109.397005L 33.990285 105.744705C 33.990285 105.744705 32.211685 107.832805 30.778985 107.275005C 30.147185 107.029005 29.047685 105.988505 28.015785 104.902105C 26.707785 103.525005 25.508485 101.074105 25.508485 101.074105C 25.508485 101.074105 9.999985 92.263205 10.946385 80.791505C 11.632485 72.475505 24.481685 62.948805 34.319785 55.654705C 35.563585 54.732605 36.759185 53.846105 37.876085 53.002305C 38.857285 52.261005 39.913285 51.826205 41.026685 51.367805C 42.131585 50.912905 43.293085 50.434705 44.494085 49.610605C 44.976485 49.245105 45.167985 48.761005 45.349585 48.301705C 45.562985 47.762105 45.762785 47.256805 46.404785 47.018605C 46.726085 46.899305 47.136485 46.807205 47.592585 46.736105L 47.592585 41.604005C 44.642685 40.287805 42.482785 37.532405 41.386285 34.034805C 41.250585 34.260705 41.069185 34.440605 40.843285 34.559405C 39.844785 35.084505 38.354885 34.216105 37.515385 32.619905C 36.675885 31.023605 36.804785 29.303905 37.803185 28.778805C 38.155885 28.593305 38.569785 28.581705 38.994685 28.714505C 38.274885 26.734205 37.876185 24.436005 37.876185 22.812705C 37.876185 18.128205 40.104185 13.182805 45.971185 13.182805C 51.283285 10.000005 56.309785 10.110305 59.924485 12.291505C 58.640185 12.535205 57.712485 13.379605 57.377285 14.329205C 56.878285 15.743905 58.068085 17.273105 59.089785 17.133905C 59.536585 17.073005 59.517785 16.157705 59.777085 15.624205C 59.960385 15.247205 60.314585 15.188405 60.826585 15.188405C 62.120585 17.257805 63.685285 19.119105 65.318585 20.922605C 65.661385 23.540405 65.220585 26.239405 64.324385 28.708405C 66.635685 28.010005 66.473985 31.307205 65.783585 32.619905C 65.180785 33.766105 62.999785 35.788005 61.924685 34.054505C 60.826185 37.543205 58.668385 40.291105 55.723385 41.604605L 55.723385 46.736105C 56.179785 46.807205 56.590285 46.899305 56.911585 47.018605C 58.100085 47.459605 57.773585 48.815905 58.822785 49.610605C 61.234085 51.265305 60.668885 47.663605 65.896385 47.663605C 82.492085 41.218305 82.606085 35.123305 72.165585 26.187705C 71.048685 25.277105 67.699085 23.786605 67.286985 22.340705C 66.729185 22.139905 66.049985 21.549505 65.301485 20.796905C 63.548085 19.033805 61.581885 16.299405 60.855885 15.138305C 60.343785 15.138305 59.903285 15.237505 59.719985 15.614405C 59.460585 16.148005 59.535785 17.021105 59.088985 17.082005C 58.067285 17.221205 56.966285 15.734405 57.465385 14.319805C 57.867485 13.180305 58.830685 12.608305 59.975585 12.322505C 61.312785 11.988705 62.897585 12.045605 64.124485 12.045805C 66.158085 12.046205 67.661385 17.186605 70.086285 18.363305C 71.161685 18.670005 72.226685 19.370805 73.231585 20.137305C 73.647785 20.454805 74.070685 20.777405 74.510985 21.076805C 92.208785 33.109705 89.365785 42.518905 76.944285 54.737505C 73.634285 57.993405 71.264685 61.594505 69.664285 64.685605C 67.545785 68.777705 67.464785 73.493805 67.870985 78.083905C 68.577385 86.066205 68.999885 96.086305 69.220385 102.610805C 69.358185 106.685705 69.417085 109.397605 69.417085 109.397605L 69.417085 114.044705L 69.417085 123.486305C 69.416885 128.792405 68.791385 148.951905 67.667085 165.352305C 66.573885 181.298205 64.863385 196.725905 64.769385 197.568905C 65.151285 197.520605 65.530785 197.435005 65.912085 197.382805C 67.641985 197.145805 70.096185 198.047405 70.096185 200.605105L 70.096185 201.714405C 70.096185 201.714405 66.992985 203.348505 64.261385 202.714405C 59.890785 204.168005 55.448985 202.714405 55.448985 202.714405L 55.448985 197.605105C 55.448985 197.605105 55.873285 181.945605 55.448985 165.352305C 55.024585 148.759105 53.123885 123.486305 53.123885 123.486305L 50.193985 123.486305C 50.193985 123.486305 48.293185 148.759105 47.868885 165.352305C 47.444585 181.945605 47.868885 197.605105 47.868885 197.605105ZM 34.186885 98.957805C 34.428185 91.818605 34.963985 79.679805 36.257485 70.930505C 33.078685 72.749205 21.514585 79.636205 20.830885 82.072505C 20.507285 83.863105 22.836085 87.053205 25.233385 90.336805C 26.521285 92.101005 27.828885 93.892105 28.755585 95.507805C 29.202785 95.998205 31.092485 97.107205 32.538685 97.956105C 33.308585 98.407905 33.952785 98.786005 34.186885 98.957805ZM 69.417085 123.486305C 69.417185 119.963105 69.417185 117.027705 69.417085 114.044705C 69.417085 112.535305 69.417085 111.013705 69.417085 109.397605M 72.165585 26.187705C 72.589485 26.533305 71.771385 25.850305 72.165585 26.187705ZM 47.869189 197.604927L 38.552789 197.604927M 42.047589 123.486127C 47.058789 124.756927 50.194189 123.486127 50.194189 123.486127M 55.449189 197.604927L 64.765589 197.604927M 61.270789 123.486127C 56.259589 124.756927 53.124189 123.486127 53.124189 123.486127M 33.900989 109.397427L 69.417289 109.397427L 33.990489 109.396827M 44.494389 49.610327L 58.823089 49.610327M 55.723689 46.735927C 54.403389 46.530227 52.699189 46.500827 51.658089 46.500827C 50.616989 46.500827 48.912989 46.530227 47.592889 46.735927M 34.187189 98.957527C 34.049389 103.032827 33.990489 105.744527 33.990489 105.744527M 28.755789 95.507627L 25.508789 101.073927M 36.257789 70.930327L 36.661989 68.196427M 70.086589 18.363127C 70.086589 18.363127 68.044289 21.344827 67.317689 22.325727M 64.324689 28.708127C 63.813389 30.116527 63.139889 31.364627 62.331889 32.095827C 61.307189 35.286727 59.898389 37.965027 58.381489 38.560527C 56.392789 39.341127 54.099889 39.760727 51.658689 39.760727C 49.217489 39.760727 46.924589 39.341127 44.935889 38.560527C 43.418989 37.965027 42.104689 35.310127 40.985489 32.095827C 40.178789 31.365727 39.505989 30.120127 38.994989 28.714327M 65.301889 20.796727C 63.548489 19.033627 61.581889 16.299427 60.855889 15.138327C 60.343889 15.138327 59.903289 15.237527 59.719989 15.614427C 59.460589 16.147927 59.535789 17.021027 59.088989 17.081927C 58.067289 17.221227 56.966289 15.734427 57.465389 14.319727C 57.867489 13.180327 58.830989 12.608127 59.975789 12.322327"></path></g></g></g><g id="g-root-tx_howtocon_qp1m0g5179qf-stroke" data-item-order="1000000000" data-item-id="tx_howtocon_qp1m0g5179qf" data-item-class="Label Stroke Title ColorFillBlack ColorStrokeBlack" data-item-index="none" data-renderer-id="0" transform="translate(32, 2)"></g><g id="g-root-tx_howtocon_qp1m0g5179qf-stroke" data-item-order="1000000000" data-item-id="tx_howtocon_qp1m0g5179qf" data-item-class="Label Stroke Title ColorFillBlack ColorStrokeBlack" data-item-index="none" data-renderer-id="0" transform="translate(32, 2)"></g><g id="g-root-tx_perworks_2r2cw5179qj-stroke" data-item-order="1000000000" data-item-id="tx_perworks_2r2cw5179qj" data-item-class="Label Stroke Indexed ColorFillBlack ColorStrokeBlack" data-item-index="2" data-renderer-id="0" transform="translate(206, 74)"></g><g id="g-root-tx_perworks_2r2cw5179qj-stroke" data-item-order="1000000000" data-item-id="tx_perworks_2r2cw5179qj" data-item-class="Label Stroke Indexed ColorFillBlack ColorStrokeBlack" data-item-index="2" data-renderer-id="0" transform="translate(206, 74)"></g><g id="g-root-tx_peruser_1lselyo517b4d-stroke" data-item-order="1000000000" data-item-id="tx_peruser_1lselyo517b4d" data-item-class="Label Stroke Indexed Indexed_1 ColorFillBlack ColorStrokeBlack" data-item-index="1" data-renderer-id="0" transform="translate(44, 98)"></g><g id="g-root-tx_peruser_1lselyo517b4d-stroke" data-item-order="1000000000" data-item-id="tx_peruser_1lselyo517b4d" data-item-class="Label Stroke Indexed Indexed_1 ColorFillBlack ColorStrokeBlack" data-item-index="1" data-renderer-id="0" transform="translate(44, 98)"></g><g id="g-root-tx_separate_8xrlio517c3m-stroke" data-item-order="1000000000" data-item-id="tx_separate_8xrlio517c3m" data-item-class="Label Stroke Indexed ColorFillBlack ColorStrokeBlack" data-item-index="2" data-renderer-id="0" transform="translate(188, 110)"></g><g id="g-root-tx_separate_8xrlio517c3m-stroke" data-item-order="1000000000" data-item-id="tx_separate_8xrlio517c3m" data-item-class="Label Stroke Indexed ColorFillBlack ColorStrokeBlack" data-item-index="2" data-renderer-id="0" transform="translate(188, 110)"></g><g id="g-root-tx_ephemera_ddl3n4517bbd-stroke" data-item-order="1000000000" data-item-id="tx_ephemera_ddl3n4517bbd" data-item-class="Label Stroke Indexed ColorFillBlack ColorStrokeBlack" data-item-index="3" data-renderer-id="0" transform="translate(416, 98)"></g><g id="g-root-tx_ephemera_ddl3n4517bbd-stroke" data-item-order="1000000000" data-item-id="tx_ephemera_ddl3n4517bbd" data-item-class="Label Stroke Indexed ColorFillBlack ColorStrokeBlack" data-item-index="3" data-renderer-id="0" transform="translate(416, 98)"></g><g id="g-root-tx_singlepv_1uo1m7k517abo-stroke" data-item-order="1000000000" data-item-id="tx_singlepv_1uo1m7k517abo" data-item-class="Label Stroke Indexed Indexed_1 ColorFillBlack ColorStrokeBlack" data-item-index="1" data-renderer-id="0" transform="translate(2, 134)"></g><g id="g-root-tx_singlepv_1uo1m7k517abo-stroke" data-item-order="1000000000" data-item-id="tx_singlepv_1uo1m7k517abo" data-item-class="Label Stroke Indexed Indexed_1 ColorFillBlack ColorStrokeBlack" data-item-index="1" data-renderer-id="0" transform="translate(2, 134)"></g><g id="g-root-tx_nostorag_m983w0517aio-stroke" data-item-order="1000000000" data-item-id="tx_nostorag_m983w0517aio" data-item-class="Label Stroke Indexed ColorFillBlack ColorStrokeBlack" data-item-index="3" data-renderer-id="0" transform="translate(386, 134)"></g><g id="g-root-tx_nostorag_m983w0517aio-stroke" data-item-order="1000000000" data-item-id="tx_nostorag_m983w0517aio" data-item-class="Label Stroke Indexed ColorFillBlack ColorStrokeBlack" data-item-index="3" data-renderer-id="0" transform="translate(386, 134)"></g></g></g></svg>